<svg width="51" height="50" viewBox="0 0 51 50" fill="none" xmlns="http://www.w3.org/2000/svg">
<g clip-path="url(#clip0_168:1521)">
<path d="M25.9953 50C19.3649 50 13.006 47.3661 8.31763 42.6777C3.62922 37.9893 0.995303 31.6304 0.995302 25C0.995301 18.3696 3.62922 12.0107 8.31763 7.32233C13.006 2.63392 19.3649 -1.04948e-06 25.9953 -1.62913e-06C32.6257 -2.20878e-06 38.9846 2.63392 43.673 7.32233C48.3614 12.0107 50.9953 18.3696 50.9953 25C50.9953 31.6304 48.3614 37.9893 43.673 42.6777C38.9846 47.3661 32.6257 50 25.9953 50V50ZM36.9328 26.5625C37.3472 26.5625 37.7446 26.3979 38.0377 26.1049C38.3307 25.8118 38.4953 25.4144 38.4953 25C38.4953 24.5856 38.3307 24.1882 38.0377 23.8951C37.7446 23.6021 37.3472 23.4375 36.9328 23.4375L18.8297 23.4375L25.5391 16.7312C25.6843 16.586 25.7996 16.4135 25.8782 16.2237C25.9568 16.0339 25.9973 15.8305 25.9973 15.625C25.9973 15.4196 25.9568 15.2161 25.8782 15.0263C25.7996 14.8365 25.6843 14.664 25.539 14.5187C25.3938 14.3735 25.2213 14.2582 25.0315 14.1796C24.8417 14.101 24.6382 14.0605 24.4328 14.0605C24.2273 14.0605 24.0239 14.101 23.8341 14.1796C23.6443 14.2582 23.4718 14.3735 23.3265 14.5187L13.9516 23.8938C13.806 24.0389 13.6906 24.2113 13.6118 24.4011C13.5331 24.591 13.4925 24.7945 13.4925 25C13.4925 25.2055 13.5331 25.409 13.6118 25.5989C13.6906 25.7887 13.806 25.9611 13.9516 26.1063L23.3266 35.4813C23.4718 35.6265 23.6443 35.7418 23.8341 35.8204C24.0239 35.899 24.2274 35.9395 24.4328 35.9395C24.6383 35.9395 24.8417 35.899 25.0315 35.8204C25.2213 35.7418 25.3938 35.6265 25.5391 35.4813C25.6843 35.336 25.7996 35.1635 25.8782 34.9737C25.9568 34.7839 25.9973 34.5805 25.9973 34.375C25.9973 34.1696 25.9568 33.9661 25.8782 33.7763C25.7996 33.5865 25.6843 33.414 25.5391 33.2688L18.8297 26.5625L36.9328 26.5625Z" fill="#8A19E1"/>
</g>
<defs>
<clipPath id="clip0_168:1521">
<rect width="50" height="50" fill="white" transform="translate(50.9953 50) rotate(180)"/>
</clipPath>
</defs>
</svg>
