<svg width="120" height="102" viewBox="0 0 120 102" fill="none" xmlns="http://www.w3.org/2000/svg">
<ellipse cx="46.9574" cy="55.4198" rx="46.9574" ry="46.0984" fill="#E8D1F9"/>
<path fill-rule="evenodd" clip-rule="evenodd" d="M29.4671 56.1676C28.1046 55.3777 27.6404 53.6327 28.4303 52.2702L37.0123 37.4673C37.8023 36.1047 39.5472 35.6405 40.9098 36.4305L65.5812 50.7338C66.9438 51.5238 67.408 53.2687 66.618 54.6313L58.036 69.4341C57.2461 70.7967 55.5011 71.2609 54.1386 70.471L29.4671 56.1676ZM34.7949 52.6637L54.5321 64.1063L60.2534 54.2378L40.5163 42.7951L34.7949 52.6637Z" fill="#8A19E1"/>
<path fill-rule="evenodd" clip-rule="evenodd" d="M66.475 77.6225C65.1124 76.8325 64.6482 75.0876 65.4381 73.725L74.0201 58.9221C74.8101 57.5596 76.555 57.0954 77.9176 57.8853L102.589 72.1886C103.952 72.9786 104.416 74.7236 103.626 76.0861L95.0439 90.889C94.2539 92.2515 92.5089 92.7157 91.1464 91.9258L66.475 77.6225ZM71.8028 74.1185L91.5399 85.5612L97.2612 75.6926L77.5241 64.2499L71.8028 74.1185Z" fill="#8A19E1"/>
<path fill-rule="evenodd" clip-rule="evenodd" d="M51.2257 55.5959C52.0157 54.2333 53.7607 53.7691 55.1232 54.5591L79.7946 68.8624C81.1572 69.6524 81.6214 71.3973 80.8315 72.7599C80.0415 74.1225 78.2965 74.5866 76.934 73.7967L52.2626 59.4934C50.9 58.7034 50.4358 56.9585 51.2257 55.5959Z" fill="#F59F27"/>
</svg>
