<svg width="131" height="117" viewBox="0 0 131 117" fill="none" xmlns="http://www.w3.org/2000/svg">
<g clip-path="url(#clip0_690:3319)">
<ellipse cx="46.1997" cy="72.5965" rx="46.1997" ry="44.4037" fill="#E8D1F9"/>
<path d="M121 70V20C121 17.8783 120.157 15.8434 118.657 14.3431C117.157 12.8429 115.122 12 113 12H37C34.8783 12 32.8434 12.8429 31.3431 14.3431C29.8429 15.8434 29 17.8783 29 20V70" stroke="#8A19E1" stroke-width="4" stroke-linejoin="round"/>
<path d="M35 28H115" stroke="#8A19E1" stroke-width="4" stroke-linejoin="round"/>
<path d="M37 20H41" stroke="#8A19E1" stroke-width="4" stroke-linejoin="round"/>
<path d="M45 20H49" stroke="#8A19E1" stroke-width="4" stroke-linejoin="round"/>
<path d="M109 20H113" stroke="#8A19E1" stroke-width="4" stroke-linejoin="round"/>
<path d="M68.999 104H44.999C40.9455 103.976 37.0522 102.414 34.1057 99.6305C31.1592 96.8467 29.3791 93.0483 29.1252 89.0026C28.8713 84.957 30.1623 80.9658 32.7376 77.8354C35.3129 74.705 38.9803 72.6687 42.999 72.138C42.999 72.09 42.999 72.046 42.999 72C42.999 67.7565 44.6847 63.6869 47.6853 60.6863C50.6859 57.6857 54.7555 56 58.999 56H60.999C60.999 51.7565 62.6847 47.6869 65.6853 44.6863C68.6859 41.6857 72.7555 40 76.999 40C81.2425 40 85.3121 41.6857 88.3127 44.6863C91.3133 47.6869 92.999 51.7565 92.999 56C92.999 56.046 92.999 56.09 92.999 56.138C96.8634 56.6249 100.417 58.5046 102.995 61.4248C105.572 64.345 106.996 68.1051 106.999 72C106.999 72.046 106.999 72.09 106.999 72.138C111.018 72.6687 114.685 74.705 117.26 77.8354C119.836 80.9658 121.127 84.957 120.873 89.0026C120.619 93.0483 118.839 96.8467 115.892 99.6305C112.946 102.414 109.053 103.976 104.999 104H80.999" stroke="#F59F27" stroke-width="4" stroke-linejoin="round"/>
<path d="M69 56C69 53.8783 69.8429 51.8434 71.3431 50.3431C72.8434 48.8429 74.8783 48 77 48" stroke="#F59F27" stroke-width="4" stroke-linejoin="round"/>
<path d="M75.0005 106V92C74.9947 91.7358 75.0425 91.4731 75.141 91.2279C75.2395 90.9827 75.3866 90.7599 75.5735 90.573C75.7604 90.3861 75.9831 90.239 76.2284 90.1406C76.4736 90.0421 76.7362 89.9943 77.0005 90H93.0005C93.2647 90.0057 93.5273 89.9579 93.7726 89.8594C94.0178 89.761 94.2406 89.6139 94.4274 89.427C94.6143 89.2401 94.7614 89.0173 94.8599 88.7721C94.9584 88.5269 95.0062 88.2642 95.0005 88V80" stroke="#8A19E1" stroke-width="4" stroke-linejoin="round"/>
<path d="M69.0005 90H57.0005C56.7362 90.0057 56.4736 89.9579 56.2284 89.8594C55.9831 89.761 55.7604 89.6139 55.5735 89.427C55.3866 89.2401 55.2395 89.0173 55.141 88.7721C55.0425 88.5269 54.9947 88.2642 55.0005 88V80" stroke="#8A19E1" stroke-width="4" stroke-linejoin="round"/>
<path d="M95 80C97.2091 80 99 78.2091 99 76C99 73.7909 97.2091 72 95 72C92.7909 72 91 73.7909 91 76C91 78.2091 92.7909 80 95 80Z" stroke="#8A19E1" stroke-width="4" stroke-linejoin="round"/>
<path d="M75 80C77.2091 80 79 78.2091 79 76C79 73.7909 77.2091 72 75 72C72.7909 72 71 73.7909 71 76C71 78.2091 72.7909 80 75 80Z" stroke="#8A19E1" stroke-width="4" stroke-linejoin="round"/>
<path d="M55 80C57.2091 80 59 78.2091 59 76C59 73.7909 57.2091 72 55 72C52.7909 72 51 73.7909 51 76C51 78.2091 52.7909 80 55 80Z" stroke="#8A19E1" stroke-width="4" stroke-linejoin="round"/>
<path d="M75 80V86" stroke="#8A19E1" stroke-width="4" stroke-linejoin="round"/>
<path d="M45 36H37V44" stroke="#8A19E1" stroke-width="4" stroke-linejoin="round"/>
</g>
<defs>
<clipPath id="clip0_690:3319">
<rect width="131" height="117" fill="white" transform="translate(0 0.00012207)"/>
</clipPath>
</defs>
</svg>
