<svg width="70" height="63" viewBox="0 0 70 63" fill="none" xmlns="http://www.w3.org/2000/svg">
<ellipse cx="31.6066" cy="31.5" rx="31.6066" ry="31.5" fill="#8A19E1" fill-opacity="0.2"/>
<path d="M60.75 35.745C60.75 23.3925 51.165 15 40.5 15C29.9475 15 20.25 23.2125 20.25 35.88C18.9 36.645 18 38.085 18 39.75V44.25C18 46.725 20.025 48.75 22.5 48.75C23.7375 48.75 24.75 47.7375 24.75 46.5V35.6775C24.75 27.06 31.3875 19.5225 40.005 19.275C42.114 19.2109 44.2145 19.5707 46.1819 20.3333C48.1493 21.0958 49.9436 22.2455 51.4585 23.7143C52.9734 25.183 54.1781 26.9409 55.0012 28.8838C55.8242 30.8267 56.2489 32.915 56.25 35.025V51H40.5C39.2625 51 38.25 52.0125 38.25 53.25C38.25 54.4875 39.2625 55.5 40.5 55.5H56.25C58.725 55.5 60.75 53.475 60.75 51V48.255C62.0775 47.5575 63 46.185 63 44.565V39.39C63 37.815 62.0775 36.4425 60.75 35.745Z" fill="#8A19E1"/>
<path d="M33.75 39.75C34.9926 39.75 36 38.7426 36 37.5C36 36.2574 34.9926 35.25 33.75 35.25C32.5074 35.25 31.5 36.2574 31.5 37.5C31.5 38.7426 32.5074 39.75 33.75 39.75Z" fill="#8A19E1"/>
<path d="M47.25 39.75C48.4926 39.75 49.5 38.7426 49.5 37.5C49.5 36.2574 48.4926 35.25 47.25 35.25C46.0074 35.25 45 36.2574 45 37.5C45 38.7426 46.0074 39.75 47.25 39.75Z" fill="#8A19E1"/>
<path d="M54 33.1552C53.4633 29.9675 51.8242 27.0739 49.3729 24.9865C46.9217 22.8991 43.8163 21.7527 40.6065 21.75C33.7859 21.75 26.4476 27.4413 27.0329 36.375C29.8087 35.2308 32.2603 33.4126 34.1691 31.0823C36.0779 28.752 37.3846 25.9822 37.9728 23.0198C40.9216 28.9831 46.9768 33.0872 54 33.1552Z" fill="#F59F27"/>
</svg>
