<svg width="120" height="102" viewBox="0 0 120 102" fill="none" xmlns="http://www.w3.org/2000/svg">
<ellipse cx="46.9574" cy="55.4198" rx="46.9574" ry="46.0984" fill="#E8D1F9"/>
<path fill-rule="evenodd" clip-rule="evenodd" d="M76.6491 55C77.757 55.0014 78.7493 55.7405 79.144 56.8584C79.2467 57.1493 79.3316 57.4498 79.3983 57.7587L79.3983 57.7588C79.5114 58.2821 80.0671 58.5306 80.4897 58.2469C85.9473 54.5833 92.2471 61.3861 88.8544 67.2796C88.5916 67.736 88.8218 68.336 89.3064 68.4581C95.5645 70.0348 95.5645 79.6555 89.3064 81.2322C88.8218 81.3543 88.5916 81.9544 88.8544 82.4108C92.2471 88.3042 85.9473 95.1071 80.4897 91.4434C80.0671 91.1597 79.5114 91.4083 79.3983 91.9316C77.9382 98.6895 69.029 98.6895 67.5689 91.9316C67.4558 91.4083 66.9001 91.1597 66.4775 91.4434C61.0199 95.1071 54.7201 88.3042 58.1129 82.4108C58.3756 81.9544 58.1454 81.3543 57.6608 81.2322C57.6608 81.2322 57.6608 81.2322 57.6608 81.2322M76.6491 55C75.5413 54.9986 74.5474 55.7352 74.1502 56.852L76.6491 55ZM74.1502 56.852C73.9693 57.361 73.5981 57.8018 72.8822 57.9822L74.1502 56.852ZM76.2602 62.6607C75.6226 63.079 74.8999 63.4027 74.097 63.605C73.003 63.8806 72.43 65.1352 72.8211 66.2137C73.0398 66.1943 73.2608 66.1844 73.4836 66.1844C77.9131 66.1844 81.5039 70.062 81.5039 74.8452C81.5039 79.6284 77.9131 83.5059 73.4836 83.5059C70.2021 83.5059 67.3822 81.3789 66.1399 78.331C65.1215 78.2077 64.0943 77.8354 63.1174 77.1796L64.2337 75.2404L63.1174 77.1796C62.5924 76.8272 61.9848 76.8048 61.473 77.0328C63.628 79.0509 64.3032 82.5939 62.6538 85.4591C62.5138 85.7022 62.5121 85.8646 62.527 85.9706C62.5463 86.1074 62.6171 86.2771 62.7571 86.4283C62.8971 86.5795 63.0543 86.6559 63.1809 86.6768C63.2791 86.6929 63.4295 86.691 63.6546 86.5399C67.1867 84.1688 71.8309 86.2461 72.7759 90.6197C72.8361 90.8985 72.9412 91.0147 73.0212 91.0783C73.1244 91.1602 73.2856 91.2262 73.4836 91.2262C73.6816 91.2262 73.8428 91.1602 73.946 91.0783C74.026 91.0147 74.1311 90.8985 74.1913 90.6197C75.1363 86.2461 79.7805 84.1688 83.3126 86.5399C83.5377 86.691 83.6881 86.6929 83.7863 86.6768C83.913 86.6559 84.0701 86.5795 84.2101 86.4283C84.3501 86.2771 84.4209 86.1074 84.4402 85.9706C84.4552 85.8646 84.4534 85.7022 84.3134 85.4591C82.1177 81.6449 84.0414 76.6298 88.0916 75.6094C88.3498 75.5444 88.4574 75.4309 88.5162 75.3445C88.5921 75.233 88.6532 75.059 88.6532 74.8452C88.6532 74.6314 88.5921 74.4573 88.5162 74.3459C88.4574 74.2595 88.3498 74.146 88.0916 74.0809C84.0414 73.0605 82.1177 68.0454 84.3134 64.2313C84.4534 63.9881 84.4552 63.8257 84.4402 63.7197C84.4209 63.5829 84.3501 63.4132 84.2101 63.2621C84.0701 63.1109 83.913 63.0344 83.7863 63.0136C83.6881 62.9974 83.5377 62.9993 83.3126 63.1505C80.986 64.7123 78.1768 64.344 76.2602 62.6607ZM72.8822 57.9822C68.1106 59.1843 65.8443 65.0928 68.4311 69.5863L72.8822 57.9822ZM73.4836 71.9583C73.0885 71.9583 72.7202 72.049 72.3896 72.2095C71.6621 72.5627 70.8265 72.5467 70.1111 72.1657C69.3956 71.7848 68.8751 71.0788 68.6916 70.2405C68.6498 70.0496 68.5713 69.8299 68.4311 69.5863M73.4836 71.9583C74.9601 71.9583 76.157 73.2508 76.157 74.8452L73.4836 71.9583ZM55.1943 77.0827C56.3075 71.93 61.779 69.4827 65.9402 72.2761C66.4942 72.6479 66.9741 72.6588 67.3731 72.5275C68.1493 72.2721 68.991 72.4113 69.6609 72.9057C70.3308 73.4002 70.7565 74.1965 70.8181 75.0702C70.9228 76.558 72.0775 77.7321 73.4836 77.7321C74.9601 77.7321 76.157 76.4396 76.157 74.8452M55.1943 77.0827L57.2991 77.613L55.1943 77.0827ZM57.6608 81.2322C57.3087 81.1435 56.9685 81.0252 56.6424 80.8779C55.3535 80.2958 54.697 78.7402 55.1358 77.3079C55.1571 77.2383 55.1768 77.1634 55.1943 77.0827L57.2991 77.613" fill="#F59F27"/>
<path fill-rule="evenodd" clip-rule="evenodd" d="M44.9326 35.8811C46.716 28.2371 57.5982 28.2371 59.3817 35.8811C59.6734 37.1316 61.1072 37.7255 62.1977 37.0476C68.8639 32.9035 76.5588 40.5984 72.4148 47.2647C71.7369 48.3551 72.3308 49.7889 73.5812 50.0807C81.2252 51.8641 81.2252 62.7464 73.5812 64.5298C72.3308 64.8215 71.7369 66.2554 72.4148 67.3458C76.5588 74.0121 68.8639 81.707 62.1977 77.5629C61.1072 76.885 59.6734 77.4789 59.3817 78.7293C57.5982 86.3734 46.716 86.3734 44.9326 78.7293C44.6408 77.4789 43.207 76.885 42.1165 77.5629C35.4503 81.707 27.7554 74.0121 31.8995 67.3458C32.5773 66.2554 31.9834 64.8215 30.733 64.5298C23.089 62.7464 23.089 51.8641 30.733 50.0807C31.9834 49.7889 32.5773 48.3551 31.8995 47.2647C27.7554 40.5984 35.4503 32.9035 42.1165 37.0476C43.207 37.7255 44.6408 37.1316 44.9326 35.8811ZM53.9832 37.1407C53.5324 35.2086 50.7818 35.2086 50.3311 37.1407C49.1768 42.0878 43.5041 44.4375 39.1898 41.7555C37.5049 40.7081 35.56 42.653 36.6074 44.338C39.2894 48.6522 36.9396 54.325 31.9926 55.4792C30.0605 55.93 30.0605 58.6805 31.9926 59.1313C36.9396 60.2855 39.2894 65.9583 36.6074 70.2725C35.56 71.9575 37.5049 73.9024 39.1898 72.855C43.5041 70.173 49.1768 72.5227 50.3311 77.4698C50.7818 79.4019 53.5324 79.4019 53.9832 77.4698C55.1374 72.5227 60.8101 70.173 65.1244 72.855C66.8093 73.9024 68.7543 71.9575 67.7068 70.2725C65.0249 65.9583 67.3746 60.2855 72.3217 59.1313C74.2538 58.6805 74.2538 55.93 72.3217 55.4792C67.3746 54.325 65.0249 48.6522 67.7068 44.338C68.7543 42.653 66.8093 40.7081 65.1244 41.7555C60.8101 44.4375 55.1374 42.0878 53.9832 37.1407Z" fill="#8A19E1"/>
<path fill-rule="evenodd" clip-rule="evenodd" d="M52.1567 53.148C49.8605 53.148 47.9991 55.0094 47.9991 57.3056C47.9991 59.6018 49.8605 61.4632 52.1567 61.4632C54.4529 61.4632 56.3143 59.6018 56.3143 57.3056C56.3143 55.0094 54.4529 53.148 52.1567 53.148ZM42.4556 57.3056C42.4556 51.9478 46.7989 47.6045 52.1567 47.6045C57.5145 47.6045 61.8578 51.9478 61.8578 57.3056C61.8578 62.6634 57.5145 67.0067 52.1567 67.0067C46.7989 67.0067 42.4556 62.6634 42.4556 57.3056Z" fill="#F59F27"/>
</svg>
