<svg width="20" height="26" viewBox="0 0 20 26" fill="none" xmlns="http://www.w3.org/2000/svg">
<path d="M10 0C7.3488 0.00319472 4.80708 1.08037 2.93239 2.99522C1.05771 4.91008 0.00313834 7.50627 1.0639e-05 10.2143C-0.00316471 12.4273 0.704538 14.5802 2.01455 16.3429C2.01455 16.3429 2.28728 16.7096 2.33183 16.7626L10 26L17.6718 16.7579C17.7118 16.7087 17.9854 16.3429 17.9854 16.3429L17.9864 16.3401C19.2957 14.5782 20.0031 12.4263 20 10.2143C19.9969 7.50627 18.9423 4.91008 17.0676 2.99522C15.1929 1.08037 12.6512 0.00319472 10 0V0ZM10 13.9286C9.2808 13.9286 8.57774 13.7107 7.97975 13.3026C7.38175 12.8945 6.91567 12.3144 6.64044 11.6357C6.36521 10.957 6.2932 10.2102 6.43351 9.48966C6.57382 8.76916 6.92015 8.10734 7.42871 7.58789C7.93726 7.06844 8.5852 6.71468 9.29058 6.57137C9.99597 6.42805 10.7271 6.50161 11.3916 6.78273C12.056 7.06386 12.624 7.53993 13.0235 8.15074C13.4231 8.76155 13.6364 9.47967 13.6364 10.2143C13.6352 11.199 13.2517 12.143 12.57 12.8393C11.8883 13.5356 10.9641 13.9273 10 13.9286V13.9286Z" fill="#8A19E1"/>
</svg>
