<svg width="77" height="23" viewBox="0 0 77 23" fill="none" xmlns="http://www.w3.org/2000/svg">
<g clip-path="url(#clip0_195:1572)">
<path fill-rule="evenodd" clip-rule="evenodd" d="M13.1712 3.80339C16.1615 3.80339 18.6241 6.13932 18.6241 9.04427C18.6241 11.9193 16.1615 14.2552 13.1712 14.2552C10.1516 14.2552 7.68901 11.9193 7.68901 9.04427C7.68901 6.13932 10.1516 3.80339 13.1712 3.80339ZM70.837 10.8711V6.82812H69.1953V4.04297H70.837V3.14453C70.837 2.1862 71.5993 1.4375 72.5081 1.4375C73.4169 1.4375 74.1791 2.1862 74.1791 3.14453V4.04297H75.6157C76.3779 4.04297 76.9935 4.67187 76.9935 5.45052C76.9935 6.22917 76.3779 6.82812 75.6157 6.82812H74.1791V9.97266C74.1791 11.1107 74.7948 11.1406 75.5863 11.1406C76.3486 11.1406 76.9935 11.7695 76.9935 12.5781C76.9935 13.3568 76.3779 13.9857 75.5863 14.0156H73.9446C72.2442 14.0156 70.8664 12.6081 70.837 10.8711ZM48.5857 4.64193L48.615 4.67187C48.8496 4.91146 48.9961 5.24088 48.9961 5.57031C48.9961 6.22917 48.4391 6.79818 47.7942 6.79818C47.7649 6.79818 47.7649 6.79818 47.7649 6.79818C47.5596 6.79818 47.3251 6.76823 47.0613 6.67838C46.5629 6.55859 45.2729 6.34896 44.6573 6.55859C44.628 6.58854 44.5987 6.58854 44.5693 6.61849H44.54C44.4228 6.70833 44.3641 6.82812 44.3641 6.97786C44.3641 7.1276 44.4521 7.27734 44.5693 7.33724C45.3316 7.72656 46.3577 7.78646 47.2372 8.08594C50.7551 9.34375 50.0515 13.3568 46.7094 14.1055C45.4782 14.375 41.8136 14.4948 41.11 13.0273V12.9974C41.11 12.9974 41.11 12.9674 41.0807 12.9375C41.0513 12.8776 41.0513 12.8477 41.022 12.7878C41.022 12.668 40.9927 12.5781 40.9927 12.4583C40.9927 11.8594 41.4325 11.3503 41.9895 11.2305H42.0188C42.312 11.2005 42.6638 11.2005 42.9862 11.2904C43.8951 11.5299 45.2436 11.7396 45.8886 11.4102C45.9179 11.4102 45.9179 11.3802 45.9472 11.3802C46.0645 11.2904 46.1231 11.1706 46.1231 11.0208C46.1231 10.8711 46.0645 10.7513 45.9472 10.6914V10.6615C45.9179 10.6615 45.9179 10.6615 45.8886 10.6615C45.7127 10.5417 45.3609 10.4818 45.0677 10.3919C43.9537 10.0625 41.9015 9.61328 41.3152 8.625C40.7875 7.78646 40.7875 6.40885 41.2566 5.54036C42.4292 3.41406 47.1492 3.32422 48.5857 4.64193ZM55.3872 3.80339C58.4068 3.80339 60.8401 6.13932 60.8401 9.04427C60.8401 11.9193 58.4068 14.2552 55.3872 14.2552C52.3676 14.2552 49.9343 11.9193 49.9343 9.04427C49.9343 6.13932 52.3676 3.80339 55.3872 3.80339ZM57.498 9.04427C57.498 7.75651 56.5598 6.73828 55.3872 6.73828C54.2145 6.73828 53.2764 7.75651 53.2764 9.04427C53.2764 10.3021 54.2145 11.3503 55.3872 11.3503C56.5598 11.3503 57.498 10.3021 57.498 9.04427ZM62.4525 3.14453V3.17448C62.4525 3.53385 62.4525 3.68359 62.4525 4.04297H61.6903C61.6903 4.04297 61.6903 4.04297 61.6609 4.04297C60.928 4.04297 60.3124 4.67187 60.3124 5.45052C60.3124 6.22917 60.928 6.82812 61.6609 6.82812C61.6903 6.82812 61.6903 6.82812 61.6903 6.82812H62.4525V10.4219C63.3906 10.3021 64.3874 10.6016 65.1203 11.3503C65.4135 11.6497 65.6187 11.9492 65.7653 12.3086V6.82812H68.5797V4.04297H65.7653C65.7653 2.90495 66.3809 2.875 67.1725 2.875C67.964 2.875 68.5797 2.21615 68.5797 1.4375C68.5797 0.658854 67.964 0 67.2018 0H67.1725H67.1431L65.6187 0.0299479C65.5894 0.0299479 65.5894 0 65.56 0C63.8597 0 62.4525 1.40755 62.4525 3.14453ZM36.39 10.0026V11.3503C36.39 11.3503 36.1261 11.5599 35.5691 11.7695C34.8069 12.099 33.8981 11.8594 33.6342 11.3503C33.0479 10.2721 34.3085 8.89453 36.39 10.0026ZM36.3314 3.92318C38.2076 4.22266 39.7321 5.83984 39.7321 7.84635C39.7321 8.74479 39.7321 10.0326 39.7321 10.901C39.7321 11.2305 39.8494 11.3802 40.2598 11.3802C40.3771 11.3802 40.5236 11.3802 40.6702 11.3802C40.465 11.6797 40.3477 12.069 40.3477 12.4583C40.3477 12.6081 40.3771 12.7878 40.4064 12.9375C40.4357 13.0273 40.465 13.1172 40.4943 13.207C40.4943 13.237 40.5236 13.2669 40.553 13.2969C40.6116 13.4766 40.7289 13.6263 40.8461 13.776C40.5823 13.9258 40.2305 14.0755 39.9666 14.1354C38.4422 14.4948 37.592 14.0156 36.7711 13.1471L35.9796 13.6862C34.0447 15.0638 30.5853 14.3151 30.2042 11.4701C29.999 9.70312 30.8492 8.65495 31.9925 8.11588C33.4877 7.42708 34.9242 7.72656 36.39 8.20573C36.4486 5.92969 33.8688 6.67838 32.5202 6.64844C31.8752 6.64844 31.3182 6.07943 31.3182 5.42057C31.3182 5.0612 31.4941 4.73177 31.7287 4.52214C32.1098 4.13281 32.9599 3.83333 34.6603 3.80339C35.276 3.77344 35.8037 3.83333 36.3314 3.92318ZM22.4646 9.07422C22.1128 6.73828 24.4581 6.28906 25.6308 7.00781C26.0999 7.30729 26.2758 7.54687 26.2758 8.32552C26.2758 8.38542 26.2758 8.47526 26.2758 8.53516V9.46354C26.2464 9.70312 26.1878 9.91276 26.0119 10.0625C25.0151 11.0807 22.7284 10.931 22.4646 9.07422ZM21.4385 14.9141C21.5558 14.9141 21.6437 14.944 21.7317 14.974C23.0802 15.2135 24.2822 15.2734 25.2497 14.7643C25.924 14.4349 26.2464 13.6562 26.2758 12.3984C24.8686 13.7161 22.9923 14.0456 21.3212 13.0872C18.243 11.2904 18.3896 5.98958 21.3212 4.3125C22.9043 3.41406 24.9858 3.71354 26.2758 5.0013C26.3344 4.10286 27.0673 3.41406 27.9468 3.41406C28.8849 3.41406 29.6179 4.19271 29.6179 5.12109V12.099C29.6179 15.0339 28.709 16.3815 26.9794 17.2799C25.4842 18.0586 23.2268 18.0586 21.2919 17.7292C21.2333 17.7292 21.1747 17.6992 21.116 17.6992C20.5297 17.5495 20.09 16.9805 20.09 16.3216C20.09 15.543 20.6763 14.9141 21.4385 14.9141ZM6.51635 10.901C7.36653 10.901 8.04081 11.6198 8.04081 12.4583C8.04081 13.2669 7.45448 13.8958 6.69225 13.9857C6.66293 14.0156 6.54567 14.0156 6.51635 14.0156H1.73774C0.770289 14.0156 0.00805664 13.237 0.00805664 12.2786V2.03646C0.00805664 1.07812 0.770289 0.299479 1.73774 0.299479C2.67587 0.299479 3.4381 1.07812 3.4381 2.03646V9.55338C3.4381 10.3021 4.02444 10.901 4.75735 10.901H6.51635ZM15.282 9.04427C15.282 7.75651 14.3146 6.73828 13.1712 6.73828C11.9986 6.73828 11.0311 7.75651 11.0311 9.04427C11.0311 10.3021 11.9986 11.3503 13.1712 11.3503C14.3146 11.3503 15.282 10.3021 15.282 9.04427Z" fill="#F59F27"/>
<path d="M61.6893 12.2156C62.3343 11.5567 63.3897 11.5567 64.0347 12.2156C64.6796 12.8744 64.6796 13.9226 64.0347 14.5815L56.5589 22.2182C55.914 22.877 54.8586 22.877 54.2136 22.2182L50.5783 18.5046C49.9334 17.8458 49.9334 16.7976 50.5783 16.1388C51.2233 15.4799 52.2787 15.4799 52.9237 16.1388L55.3863 18.6544L61.6893 12.2156Z" fill="#8A19E1"/>
</g>
<defs>
<clipPath id="clip0_195:1572">
<rect width="77" height="23" fill="white"/>
</clipPath>
</defs>
</svg>
