<svg width="36" height="36" viewBox="0 0 36 36" fill="none" xmlns="http://www.w3.org/2000/svg">
<path fill-rule="evenodd" clip-rule="evenodd" d="M18 0.583313C8.38129 0.583313 0.583374 8.38123 0.583374 18C0.583374 27.6187 8.38129 35.4166 18 35.4166C27.6188 35.4166 35.4167 27.6187 35.4167 18C35.4167 8.38123 27.6188 0.583313 18 0.583313ZM19.5834 24.3333C19.5834 24.7532 19.4166 25.156 19.1196 25.4529C18.8227 25.7498 18.42 25.9166 18 25.9166C17.5801 25.9166 17.1774 25.7498 16.8805 25.4529C16.5835 25.156 16.4167 24.7532 16.4167 24.3333V19.5833H11.6667C11.2468 19.5833 10.8441 19.4165 10.5471 19.1196C10.2502 18.8226 10.0834 18.4199 10.0834 18C10.0834 17.5801 10.2502 17.1773 10.5471 16.8804C10.8441 16.5835 11.2468 16.4166 11.6667 16.4166H16.4167V11.6666C16.4167 11.2467 16.5835 10.844 16.8805 10.5471C17.1774 10.2501 17.5801 10.0833 18 10.0833C18.42 10.0833 18.8227 10.2501 19.1196 10.5471C19.4166 10.844 19.5834 11.2467 19.5834 11.6666V16.4166H24.3334C24.7533 16.4166 25.156 16.5835 25.453 16.8804C25.7499 17.1773 25.9167 17.5801 25.9167 18C25.9167 18.4199 25.7499 18.8226 25.453 19.1196C25.156 19.4165 24.7533 19.5833 24.3334 19.5833H19.5834V24.3333Z" fill="#8A19E1"/>
</svg>
