<svg width="53" height="53" viewBox="0 0 53 53" fill="none" xmlns="http://www.w3.org/2000/svg">
<circle cx="26.5" cy="26.5" r="26.5" fill="white"/>
<g clip-path="url(#clip0_916_2338)">
<path d="M20.7523 42.1874C32.4475 42.1874 38.8461 32.8083 38.8461 24.6773C38.8461 24.4136 38.8401 24.1441 38.8279 23.8804C40.0727 23.0093 41.1468 21.9303 42 20.6941C40.8408 21.1932 39.61 21.5192 38.3496 21.6609C39.6767 20.8911 40.6703 19.6818 41.1463 18.2571C39.8979 18.9731 38.5326 19.4782 37.109 19.7507C36.1498 18.7644 34.8816 18.1113 33.5004 17.8925C32.1192 17.6737 30.702 17.9013 29.4679 18.5401C28.2338 19.1789 27.2515 20.1933 26.6729 21.4266C26.0943 22.6598 25.9516 24.0432 26.2669 25.3628C23.7391 25.2401 21.2661 24.6046 19.0083 23.4976C16.7505 22.3906 14.7584 20.8367 13.1609 18.9368C12.349 20.2915 12.1006 21.8945 12.4661 23.4201C12.8316 24.9456 13.7836 26.2792 15.1287 27.1499C14.1189 27.1189 13.1312 26.8558 12.2473 26.3823V26.4585C12.2464 27.8801 12.7542 29.2582 13.6845 30.3584C14.6148 31.4586 15.91 32.2131 17.3502 32.4937C16.4147 32.7414 15.433 32.7774 14.4808 32.5991C14.8872 33.8217 15.6779 34.8911 16.7425 35.6579C17.807 36.4247 19.0924 36.8507 20.4193 36.8765C18.1667 38.5888 15.3841 39.5176 12.5197 39.5132C12.0117 39.5125 11.5043 39.4823 11 39.423C13.9099 41.2296 17.295 42.1892 20.7523 42.1874Z" fill="#8A19E1"/>
</g>
<defs>
<clipPath id="clip0_916_2338">
<rect width="31" height="30" fill="white" transform="translate(11 15)"/>
</clipPath>
</defs>
</svg>
