<svg width="70" height="64" viewBox="0 0 70 64" fill="none" xmlns="http://www.w3.org/2000/svg">
<g clip-path="url(#clip0_765:1954)">
<ellipse cx="32.0516" cy="32.5" rx="32.3856" ry="31.5" fill="#E8D1F9"/>
<path d="M54.4071 15.024C56.8711 15.024 59.1297 15.5467 61.1831 16.592C63.2364 17.6 64.8604 19.056 66.0551 20.96C67.2871 22.8267 67.9031 24.9733 67.9031 27.4C67.9031 30.0507 67.2124 32.4027 65.8311 34.456C64.4871 36.472 62.6391 38.04 60.2871 39.16C57.9724 40.2427 55.3777 40.784 52.5031 40.784C46.9031 40.784 42.4791 39.1227 39.2311 35.8C35.9831 32.4773 34.3591 27.6987 34.3591 21.464C34.3591 16.984 35.2177 13.1387 36.9351 9.928C38.6897 6.68 41.1351 4.216 44.2711 2.536C47.4071 0.855998 51.0471 0.0159974 55.1911 0.0159974C57.4311 0.0159974 59.5591 0.258664 61.5751 0.743998C63.5911 1.22933 65.3084 1.93866 66.7271 2.872L62.6951 10.824C60.7911 9.48 58.3831 8.808 55.4711 8.808C52.6337 8.808 50.3377 9.592 48.5831 11.16C46.8284 12.728 45.8204 14.9867 45.5591 17.936C47.7991 15.9947 50.7484 15.024 54.4071 15.024ZM51.8311 32.888C53.3991 32.888 54.6684 32.44 55.6391 31.544C56.6471 30.648 57.1511 29.4347 57.1511 27.904C57.1511 26.4107 56.6471 25.216 55.6391 24.32C54.6684 23.424 53.3804 22.976 51.7751 22.976C50.1697 22.976 48.8631 23.4427 47.8551 24.376C46.8471 25.272 46.3431 26.4667 46.3431 27.96C46.3431 29.416 46.8284 30.6107 47.7991 31.544C48.8071 32.44 50.1511 32.888 51.8311 32.888Z" fill="#8A19E1"/>
</g>
<defs>
<clipPath id="clip0_765:1954">
<rect width="70" height="64" fill="white"/>
</clipPath>
</defs>
</svg>
