<svg width="67" height="63" viewBox="0 0 67 63" fill="none" xmlns="http://www.w3.org/2000/svg">
<g clip-path="url(#clip0_765:1950)">
<ellipse cx="32.0516" cy="31.5" rx="32.3856" ry="31.5" fill="#E8D1F9"/>
<path d="M54.4631 15.48C57.7111 16.152 60.1937 17.496 61.9111 19.512C63.6657 21.4907 64.5431 23.8987 64.5431 26.736C64.5431 29.0507 63.9084 31.1973 62.6391 33.176C61.4071 35.1547 59.5031 36.76 56.9271 37.992C54.3884 39.1867 51.2337 39.784 47.4631 39.784C44.7004 39.784 41.9564 39.448 39.2311 38.776C36.5431 38.104 34.2097 37.152 32.2311 35.92L36.2631 27.576C37.7937 28.6213 39.5111 29.424 41.4151 29.984C43.3564 30.544 45.2604 30.824 47.1271 30.824C49.0311 30.824 50.5431 30.4693 51.6631 29.76C52.7831 29.0507 53.3431 28.0427 53.3431 26.736C53.3431 24.1973 51.3457 22.928 47.3511 22.928H42.7031V15.928L49.7031 8.368H34.2471V-0.200003H62.5831V6.744L54.4631 15.48Z" fill="#8A19E1"/>
</g>
<defs>
<clipPath id="clip0_765:1950">
<rect width="67" height="63" fill="white"/>
</clipPath>
</defs>
</svg>
