<svg width="70" height="63" viewBox="0 0 70 63" fill="none" xmlns="http://www.w3.org/2000/svg">
<ellipse cx="31.6066" cy="31.5" rx="31.6066" ry="31.5" fill="#8A19E1" fill-opacity="0.2"/>
<path fill-rule="evenodd" clip-rule="evenodd" d="M58.1511 16.5637C59.0439 16.5637 59.7676 17.2837 59.7676 18.1719L59.7676 22.9964C59.7676 23.8845 59.0438 24.6045 58.1511 24.6045L25.8213 24.6045C24.9285 24.6045 24.2048 23.8845 24.2048 22.9964L24.2048 18.1719C24.2048 17.2837 24.9285 16.5637 25.8213 16.5637L58.1511 16.5637ZM56.5346 19.78L27.4377 19.78L27.4377 21.3882L56.5346 21.3882L56.5346 19.78Z" fill="#8A19E1"/>
<path fill-rule="evenodd" clip-rule="evenodd" d="M24.2041 22.9963C24.2041 22.1082 24.9278 21.3882 25.8206 21.3882H61.3835C62.2763 21.3882 63 22.1082 63 22.9963V48.7267C63 49.6149 62.2763 50.3349 61.3835 50.3349H25.8206C24.9278 50.3349 24.2041 49.6149 24.2041 48.7267V22.9963ZM27.4371 24.6045V47.1186H59.767V24.6045H27.4371Z" fill="#8A19E1"/>
<path d="M56.5334 35.8616C56.5334 37.638 55.086 39.078 53.3004 39.078C51.5149 39.078 50.0674 37.638 50.0674 35.8616C50.0674 34.0853 51.5149 32.6453 53.3004 32.6453C55.086 32.6453 56.5334 34.0853 56.5334 35.8616Z" fill="#F59F27"/>
</svg>
