<svg width="120" height="102" viewBox="0 0 120 102" fill="none" xmlns="http://www.w3.org/2000/svg">
<ellipse cx="46.9574" cy="55.4198" rx="46.9574" ry="46.0984" fill="#E8D1F9"/>
<path fill-rule="evenodd" clip-rule="evenodd" d="M96.8755 45C98.1872 45 99.2505 46.0814 99.2505 47.4153L99.2505 54.6614C99.2505 55.9953 98.1872 57.0767 96.8755 57.0767L49.3755 57.0767C48.0638 57.0767 47.0005 55.9953 47.0005 54.6614L47.0005 47.4153C47.0005 46.0814 48.0638 45 49.3755 45L96.8755 45ZM94.5005 49.8307L51.7505 49.8307L51.7505 52.246L94.5005 52.246L94.5005 49.8307Z" fill="#8A19E1"/>
<path fill-rule="evenodd" clip-rule="evenodd" d="M47 54.6614C47 53.3274 48.0633 52.246 49.375 52.246H101.625C102.937 52.246 104 53.3274 104 54.6614V93.3069C104 94.6408 102.937 95.7222 101.625 95.7222H49.375C48.0633 95.7222 47 94.6408 47 93.3069V54.6614ZM51.75 57.0767V90.8915H99.25V57.0767H51.75Z" fill="#8A19E1"/>
<path d="M94.5005 73.9841C94.5005 76.652 92.3738 78.8148 89.7505 78.8148C87.1271 78.8148 85.0005 76.652 85.0005 73.9841C85.0005 71.3162 87.1271 69.1534 89.7505 69.1534C92.3738 69.1534 94.5005 71.3162 94.5005 73.9841Z" fill="#F59F27"/>
</svg>
