<svg width="120" height="102" viewBox="0 0 120 102" fill="none" xmlns="http://www.w3.org/2000/svg">
<g clip-path="url(#clip0_312:2245)">
<ellipse cx="46.9574" cy="55.4198" rx="46.9574" ry="46.0984" fill="#E8D1F9"/>
<path d="M37 49.6667C37 47.1029 38.0084 44.6442 39.8034 42.8313C41.5984 41.0184 44.0329 40 46.5714 40H94.4286C96.9671 40 99.4016 41.0184 101.197 42.8313C102.992 44.6442 104 47.1029 104 49.6667V73.8333C104.001 75.6823 103.476 77.4926 102.489 79.0497C101.501 80.6067 100.093 81.8451 98.4294 82.6179C98.0881 81.9431 97.644 81.3266 97.1134 80.7909L94.9789 78.6353C96.1452 78.4989 97.2211 77.9343 98.0021 77.0489C98.783 76.1635 99.2144 75.0191 99.2143 73.8333V49.6667C99.2143 48.3848 98.7101 47.1554 97.8126 46.249C96.9151 45.3426 95.6978 44.8333 94.4286 44.8333H46.5714C45.3022 44.8333 44.0849 45.3426 43.1874 46.249C42.2899 47.1554 41.7857 48.3848 41.7857 49.6667V73.8333C41.7857 75.1152 42.2899 76.3446 43.1874 77.251C44.0849 78.1574 45.3022 78.6667 46.5714 78.6667H65.7143V83.5H46.5714C44.0329 83.5 41.5984 82.4815 39.8034 80.6687C38.0084 78.8558 37 76.3971 37 73.8333V49.6667ZM74.5846 64.8747C74.25 64.5369 73.8236 64.3068 73.3595 64.2136C72.8954 64.1204 72.4144 64.1682 71.9772 64.3511C71.54 64.534 71.1664 64.8437 70.9034 65.241C70.6405 65.6383 70.5001 66.1054 70.5 66.5833V95.5833C70.5 96.0905 70.658 96.5849 70.9517 96.9964C71.2453 97.4079 71.6597 97.7156 72.1362 97.876C72.6126 98.0364 73.127 98.0413 73.6063 97.8901C74.0857 97.7388 74.5058 97.4391 74.8071 97.0333L81.2679 88.3333H92.0357C92.5089 88.3332 92.9714 88.1914 93.3648 87.9259C93.7583 87.6603 94.0649 87.2829 94.2459 86.8414C94.427 86.3999 94.4744 85.9141 94.3821 85.4453C94.2898 84.9766 94.062 84.5461 93.7275 84.2081L74.5846 64.8747ZM75.2857 88.3333V72.4172L86.2594 83.5H80.0714C79.6999 83.5 79.3336 83.5874 79.0013 83.7551C78.669 83.9229 78.38 84.1665 78.1571 84.4667L75.2857 88.3333Z" fill="#8A19E1"/>
<path d="M72.5599 61.3235C72.2346 61.01 71.8368 60.8078 71.4128 60.7405C70.9888 60.6731 70.5561 60.7435 70.1652 60.9433C69.7743 61.1432 69.4413 61.4642 69.205 61.8691C68.9687 62.2739 68.839 62.7459 68.8308 63.2299L68.2194 98.9561C68.1789 101.319 70.7578 102.459 72.1572 100.697L80.295 90.4392C80.6202 90.0297 81.0193 89.7037 81.4652 89.4832C81.911 89.2627 82.3933 89.153 82.8791 89.1615L95.5103 89.3803C97.629 89.417 98.6336 86.4321 97.0242 84.8827L72.5599 61.3235Z" fill="#F59F27"/>
</g>
<defs>
<clipPath id="clip0_312:2245">
<rect width="120" height="102" fill="white"/>
</clipPath>
</defs>
</svg>
