<svg width="48" height="41" viewBox="0 0 48 41" fill="none" xmlns="http://www.w3.org/2000/svg">
<circle cx="20" cy="20.2366" r="20" fill="#8A19E1" fill-opacity="0.2"/>
<path fill-rule="evenodd" clip-rule="evenodd" d="M40.1022 35.6198C40.491 35.9601 41.0715 35.9601 41.4603 35.6198L45.5853 32.0105C46.014 31.6354 46.0574 30.9839 45.6824 30.5553C45.3073 30.1267 44.6558 30.0832 44.2272 30.4583L41.8125 32.5711V12.1562C41.8125 11.5867 41.3508 11.125 40.7813 11.125C40.2117 11.125 39.75 11.5867 39.75 12.1562V32.5711L37.3353 30.4583C36.9067 30.0832 36.2552 30.1267 35.8802 30.5553C35.5051 30.9839 35.5486 31.6354 35.9772 32.0105L40.1022 35.6198Z" fill="#8A19E1"/>
<path fill-rule="evenodd" clip-rule="evenodd" d="M19.9861 24.0484C20.2037 23.9839 20.4347 23.9839 20.6524 24.0484C21.8318 24.3979 23.3384 24.6154 25 24.6154C26.6616 24.6154 28.1682 24.3979 29.3476 24.0484C29.5653 23.9839 29.7963 23.9839 30.0139 24.0484C31.041 24.3528 31.9714 24.77 32.6725 25.3114C33.3571 25.8401 34 26.6355 34 27.6923C34 28.5832 33.5377 29.2938 32.9944 29.8006C32.4514 30.307 31.7326 30.7065 30.9462 31.0168C29.3654 31.6404 27.2627 32 25 32C22.7373 32 20.6346 31.6404 19.0538 31.0168C18.2674 30.7065 17.5486 30.307 17.0056 29.8006C16.4623 29.2938 16 28.5832 16 27.6923C16 26.6355 16.6429 25.8401 17.3275 25.3114C18.0286 24.77 18.959 24.3528 19.9861 24.0484ZM18.4012 27.6934C18.4096 27.7235 18.4493 27.8199 18.6203 27.9794C18.8667 28.2092 19.2902 28.4727 19.9153 28.7193C21.1575 29.2093 22.9549 29.5385 25 29.5385C27.0451 29.5385 28.8425 29.2093 30.0847 28.7193C30.7098 28.4727 31.1333 28.2092 31.3797 27.9794C31.5507 27.8199 31.5904 27.7235 31.5988 27.6934C31.5893 27.6583 31.5329 27.5126 31.2288 27.2778C30.892 27.0177 30.3684 26.7476 29.6621 26.5121C28.3049 26.8737 26.7015 27.0769 25 27.0769C23.2985 27.0769 21.6951 26.8737 20.3379 26.5121C19.6316 26.7476 19.108 27.0177 18.7712 27.2778C18.4671 27.5126 18.4107 27.6583 18.4012 27.6934ZM31.6007 27.6832C31.6008 27.6832 31.6008 27.6847 31.6001 27.6878C31.6003 27.6847 31.6006 27.6832 31.6007 27.6832ZM18.3999 27.6878C18.3992 27.6847 18.3992 27.6832 18.3993 27.6832C18.3994 27.6832 18.3997 27.6847 18.3999 27.6878Z" fill="#8A19E1"/>
<path fill-rule="evenodd" clip-rule="evenodd" d="M19.9861 19.0484C20.2037 18.9839 20.4347 18.9839 20.6524 19.0484C21.8318 19.3979 23.3384 19.6154 25 19.6154C26.6616 19.6154 28.1682 19.3979 29.3476 19.0484C29.5653 18.9839 29.7963 18.9839 30.0139 19.0484C31.041 19.3528 31.9714 19.77 32.6725 20.3114C33.3571 20.8401 34 21.6355 34 22.6923C34 23.5832 33.5377 24.2938 32.9944 24.8006C32.4514 25.307 31.7326 25.7065 30.9462 26.0168C29.3654 26.6404 27.2627 27 25 27C22.7373 27 20.6346 26.6404 19.0538 26.0168C18.2674 25.7065 17.5486 25.307 17.0056 24.8006C16.4623 24.2938 16 23.5832 16 22.6923C16 21.6355 16.6429 20.8401 17.3275 20.3114C18.0286 19.77 18.959 19.3528 19.9861 19.0484ZM18.4012 22.6934C18.4096 22.7235 18.4493 22.8199 18.6203 22.9794C18.8667 23.2092 19.2902 23.4727 19.9153 23.7193C21.1575 24.2093 22.9549 24.5385 25 24.5385C27.0451 24.5385 28.8425 24.2093 30.0847 23.7193C30.7098 23.4727 31.1333 23.2092 31.3797 22.9794C31.5507 22.8199 31.5904 22.7235 31.5988 22.6934C31.5893 22.6583 31.5329 22.5126 31.2288 22.2778C30.892 22.0177 30.3684 21.7476 29.6621 21.5121C28.3049 21.8737 26.7015 22.0769 25 22.0769C23.2985 22.0769 21.6951 21.8737 20.3379 21.5121C19.6316 21.7476 19.108 22.0177 18.7712 22.2778C18.4671 22.5126 18.4107 22.6583 18.4012 22.6934ZM31.6007 22.6832C31.6008 22.6832 31.6008 22.6847 31.6001 22.6878C31.6003 22.6847 31.6006 22.6832 31.6007 22.6832ZM18.3999 22.6878C18.3992 22.6847 18.3992 22.6832 18.3993 22.6832C18.3994 22.6832 18.3997 22.6847 18.3999 22.6878Z" fill="#F59F27"/>
<path fill-rule="evenodd" clip-rule="evenodd" d="M18.5326 17.5095C18.5324 17.5095 18.5325 17.5079 18.5332 17.5047C18.533 17.5079 18.5327 17.5095 18.5326 17.5095ZM18.5343 17.5C18.5424 17.4699 18.5831 17.3688 18.7659 17.2001C19.026 16.96 19.473 16.6848 20.1329 16.4272C21.4441 15.9153 23.3413 15.5714 25.5 15.5714C27.6587 15.5714 29.5559 15.9153 30.8671 16.4272C31.527 16.6848 31.974 16.96 32.2341 17.2001C32.4169 17.3688 32.4576 17.4699 32.4657 17.5C32.4576 17.5301 32.4169 17.6312 32.2341 17.7999C31.974 18.04 31.527 18.3152 30.8671 18.5728C29.5559 19.0847 27.6587 19.4286 25.5 19.4286C23.3413 19.4286 21.4441 19.0847 20.1329 18.5728C19.473 18.3152 19.026 18.04 18.7659 17.7999C18.5831 17.6312 18.5424 17.5301 18.5343 17.5ZM32.4674 17.5095C32.4673 17.5095 32.467 17.5079 32.4668 17.5047C32.4675 17.5079 32.4676 17.5095 32.4674 17.5095ZM32.4668 17.4953C32.467 17.4921 32.4673 17.4905 32.4674 17.4905C32.4676 17.4905 32.4675 17.4921 32.4668 17.4953ZM18.5332 17.4953C18.5325 17.4921 18.5324 17.4905 18.5326 17.4905C18.5327 17.4905 18.533 17.4921 18.5332 17.4953ZM19.2234 14.0271C20.8921 13.3757 23.1116 13 25.5 13C27.8884 13 30.1079 13.3757 31.7766 14.0271C32.6067 14.3512 33.3654 14.7686 33.9385 15.2976C34.512 15.827 35 16.5693 35 17.5C35 18.4307 34.512 19.173 33.9385 19.7024C33.3654 20.2314 32.6067 20.6488 31.7766 20.9729C30.1079 21.6243 27.8884 22 25.5 22C23.1116 22 20.8921 21.6243 19.2234 20.9729C18.3933 20.6488 17.6346 20.2314 17.0615 19.7024C16.488 19.173 16 18.4307 16 17.5C16 16.5693 16.488 15.827 17.0615 15.2976C17.6346 14.7686 18.3933 14.3512 19.2234 14.0271Z" fill="#8A19E1"/>
</svg>
