<svg width="32" height="42" viewBox="0 0 32 42" fill="none" xmlns="http://www.w3.org/2000/svg">
<path d="M5.60002 22.3002C5.60002 21.9554 5.73699 21.6248 5.98079 21.381C6.22458 21.1372 6.55524 21.0002 6.90002 21.0002C7.24481 21.0002 7.57547 21.1372 7.81926 21.381C8.06306 21.6248 8.20002 21.9554 8.20002 22.3002C8.20002 22.645 8.06306 22.9756 7.81926 23.2194C7.57547 23.4632 7.24481 23.6002 6.90002 23.6002C6.55524 23.6002 6.22458 23.4632 5.98079 23.2194C5.73699 22.9756 5.60002 22.645 5.60002 22.3002ZM6.90002 26.2002C6.55524 26.2002 6.22458 26.3372 5.98079 26.581C5.73699 26.8248 5.60002 27.1554 5.60002 27.5002C5.60002 27.845 5.73699 28.1756 5.98079 28.4194C6.22458 28.6632 6.55524 28.8002 6.90002 28.8002C7.24481 28.8002 7.57547 28.6632 7.81926 28.4194C8.06306 28.1756 8.20002 27.845 8.20002 27.5002C8.20002 27.1554 8.06306 26.8248 7.81926 26.581C7.57547 26.3372 7.24481 26.2002 6.90002 26.2002ZM5.60002 32.7002C5.60002 32.3554 5.73699 32.0248 5.98079 31.781C6.22458 31.5372 6.55524 31.4002 6.90002 31.4002C7.24481 31.4002 7.57547 31.5372 7.81926 31.781C8.06306 32.0248 8.20002 32.3554 8.20002 32.7002C8.20002 33.045 8.06306 33.3756 7.81926 33.6194C7.57547 33.8632 7.24481 34.0002 6.90002 34.0002C6.55524 34.0002 6.22458 33.8632 5.98079 33.6194C5.73699 33.3756 5.60002 33.045 5.60002 32.7002ZM12.1 21.0002C11.7552 21.0002 11.4246 21.1372 11.1808 21.381C10.937 21.6248 10.8 21.9554 10.8 22.3002C10.8 22.645 10.937 22.9756 11.1808 23.2194C11.4246 23.4632 11.7552 23.6002 12.1 23.6002H25.1C25.4448 23.6002 25.7755 23.4632 26.0193 23.2194C26.2631 22.9756 26.4 22.645 26.4 22.3002C26.4 21.9554 26.2631 21.6248 26.0193 21.381C25.7755 21.1372 25.4448 21.0002 25.1 21.0002H12.1ZM10.8 27.5002C10.8 27.1554 10.937 26.8248 11.1808 26.581C11.4246 26.3372 11.7552 26.2002 12.1 26.2002H25.1C25.4448 26.2002 25.7755 26.3372 26.0193 26.581C26.2631 26.8248 26.4 27.1554 26.4 27.5002C26.4 27.845 26.2631 28.1756 26.0193 28.4194C25.7755 28.6632 25.4448 28.8002 25.1 28.8002H12.1C11.7552 28.8002 11.4246 28.6632 11.1808 28.4194C10.937 28.1756 10.8 27.845 10.8 27.5002ZM12.1 31.4002C11.7552 31.4002 11.4246 31.5372 11.1808 31.781C10.937 32.0248 10.8 32.3554 10.8 32.7002C10.8 33.045 10.937 33.3756 11.1808 33.6194C11.4246 33.8632 11.7552 34.0002 12.1 34.0002H25.1C25.4448 34.0002 25.7755 33.8632 26.0193 33.6194C26.2631 33.3756 26.4 33.045 26.4 32.7002C26.4 32.3554 26.2631 32.0248 26.0193 31.781C25.7755 31.5372 25.4448 31.4002 25.1 31.4002H12.1ZM5.60002 0.200195C4.2209 0.200195 2.89826 0.748051 1.92307 1.72324C0.94788 2.69843 0.400024 4.02107 0.400024 5.4002V36.6002C0.400024 37.9793 0.94788 39.302 1.92307 40.2771C2.89826 41.2523 4.2209 41.8002 5.60002 41.8002H26.4C27.7792 41.8002 29.1018 41.2523 30.077 40.2771C31.0522 39.302 31.6 37.9793 31.6 36.6002V14.2766C31.5991 13.2426 31.1876 12.2513 30.456 11.5206L20.2796 1.34159C19.5485 0.610948 18.5572 0.200416 17.5236 0.200195H5.60002ZM3.00002 5.4002C3.00002 4.71063 3.27395 4.04931 3.76155 3.56172C4.24914 3.07412 4.91046 2.8002 5.60002 2.8002H16V11.9002C16 12.9345 16.4109 13.9265 17.1423 14.6579C17.8737 15.3893 18.8657 15.8002 19.9 15.8002H29V36.6002C29 37.2898 28.7261 37.9511 28.2385 38.4387C27.7509 38.9263 27.0896 39.2002 26.4 39.2002H5.60002C4.91046 39.2002 4.24914 38.9263 3.76155 38.4387C3.27395 37.9511 3.00002 37.2898 3.00002 36.6002V5.4002ZM28.4618 13.2002H19.9C19.5552 13.2002 19.2246 13.0632 18.9808 12.8194C18.737 12.5756 18.6 12.245 18.6 11.9002V3.3384L28.4618 13.2002Z" fill="white"/>
</svg>
