<svg width="70" height="63" viewBox="0 0 70 63" fill="none" xmlns="http://www.w3.org/2000/svg">
<g clip-path="url(#clip0_460:2138)">
<circle cx="31.5" cy="31.5" r="31.5" fill="#E8D1F9"/>
<path fill-rule="evenodd" clip-rule="evenodd" d="M35.3161 18.3524C28.0977 18.3524 22.246 24.3586 22.246 31.7676C22.246 39.1766 28.0977 45.1827 35.3161 45.1827C42.5345 45.1827 48.3862 39.1766 48.3862 31.7676C48.3862 31.4233 48.3736 31.0824 48.3489 30.7453C48.0883 30.241 47.4413 30.0406 46.9398 30.3656C42.6784 33.1276 37.7253 28.0438 40.4163 23.6699C40.7832 23.0736 40.4646 22.2842 39.7944 22.1288C37.7197 21.6478 36.5405 20.0779 36.2086 18.3831C35.9139 18.3628 35.6163 18.3524 35.3161 18.3524ZM18.5117 31.7676C18.5117 22.2417 26.0353 14.5195 35.3161 14.5195C36.3654 14.5195 37.3938 14.6185 38.3926 14.8083C38.894 14.9036 39.3356 15.2052 39.6149 15.6431C39.8942 16.0811 39.9868 16.6172 39.8712 17.127C39.8067 17.4114 39.8505 17.7097 39.9725 17.9335C40.0773 18.1258 40.2601 18.3073 40.6172 18.3901C43.8033 19.1288 45.3178 22.8816 43.5738 25.7164C43.0077 26.6364 44.0496 27.7058 44.946 27.1248C47.5743 25.4213 51.0061 26.7452 51.9579 29.6943C52.002 29.8309 52.031 29.9721 52.0442 30.1154C52.0947 30.6596 52.1205 31.2108 52.1205 31.7676C52.1205 41.2934 44.5969 49.0156 35.3161 49.0156C26.0353 49.0156 18.5117 41.2934 18.5117 31.7676Z" fill="#8A19E1"/>
<path fill-rule="evenodd" clip-rule="evenodd" d="M35.3164 22.1852C36.3476 22.1852 37.1835 23.0432 37.1835 24.1016V30.9736L42.2381 36.1616C42.9673 36.9101 42.9673 38.1235 42.2381 38.8719C41.5089 39.6203 40.3267 39.6203 39.5976 38.8719L33.9961 33.1226C33.6459 32.7632 33.4492 32.2757 33.4492 31.7674V24.1016C33.4492 23.0432 34.2852 22.1852 35.3164 22.1852Z" fill="#8A19E1"/>
<path fill-rule="evenodd" clip-rule="evenodd" d="M48.4403 3.78442C49.5508 -1.26147 56.5555 -1.26148 57.666 3.78442C57.8174 4.4723 58.5864 4.79928 59.1674 4.42274C63.4288 1.66071 68.3819 6.74455 65.6909 11.1185C65.3241 11.7148 65.6426 12.5042 66.3128 12.6595C71.2289 13.7993 71.2289 20.989 66.3128 22.1288C65.6426 22.2841 65.3241 23.0735 65.6909 23.6698C68.3819 28.0437 63.4288 33.1276 59.1674 30.3655C58.5864 29.989 57.8174 30.316 57.666 31.0039C56.5555 36.0498 49.5508 36.0498 48.4403 31.0039C48.289 30.316 47.5199 29.989 46.9389 30.3655C42.6775 33.1276 37.7244 28.0437 40.4154 23.6698C40.7823 23.0735 40.4637 22.2841 39.7935 22.1288C34.8774 20.989 34.8774 13.7993 39.7935 12.6595C40.4637 12.5042 40.7823 11.7148 40.4154 11.1185C37.7244 6.74455 42.6775 1.66071 46.9389 4.42274C47.5199 4.79928 48.289 4.4723 48.4403 3.78442ZM54.0235 4.62894C53.7899 3.56756 52.3165 3.56755 52.0829 4.62894C51.3632 7.89919 47.7069 9.45365 44.9451 7.66357C44.0487 7.08259 43.0068 8.15195 43.5729 9.07199C45.3169 11.9067 43.8024 15.6595 40.6163 16.3982C39.5822 16.638 39.5822 18.1503 40.6163 18.39C43.8024 19.1287 45.3169 22.8815 43.5729 25.7163C43.0068 26.6363 44.0487 27.7057 44.9451 27.1247C47.7069 25.3346 51.3632 26.8891 52.0829 30.1594C52.3165 31.2207 53.7899 31.2207 54.0235 30.1594C54.7431 26.8891 58.3994 25.3346 61.1612 27.1247C62.0576 27.7057 63.0995 26.6363 62.5334 25.7163C60.7894 22.8815 62.3039 19.1287 65.49 18.39C66.5241 18.1503 66.5241 16.638 65.49 16.3982C62.3039 15.6595 60.7894 11.9067 62.5334 9.07199C63.0995 8.15195 62.0576 7.08259 61.1612 7.66357C58.3994 9.45365 54.7431 7.89919 54.0235 4.62894Z" fill="#F59F27"/>
<path fill-rule="evenodd" clip-rule="evenodd" d="M59.6149 10.9598C60.4991 11.5044 60.7859 12.6816 60.2553 13.5891L54.6539 23.1714C54.3912 23.6208 53.9606 23.9402 53.4624 24.0552C52.9643 24.1701 52.4419 24.0707 52.0171 23.78L46.4156 19.9471C45.5576 19.36 45.3258 18.1701 45.8978 17.2894C46.4698 16.4088 47.629 16.1708 48.487 16.7579L52.4592 19.4759L57.0532 11.6171C57.5837 10.7095 58.7307 10.4152 59.6149 10.9598Z" fill="#8A19E1"/>
</g>
<defs>
<clipPath id="clip0_460:2138">
<rect width="69.9993" height="63" fill="white"/>
</clipPath>
</defs>
</svg>
