<svg width="35" height="35" viewBox="0 0 35 35" fill="none" xmlns="http://www.w3.org/2000/svg">
<path fill-rule="evenodd" clip-rule="evenodd" d="M17.4167 0C7.79792 0 0 7.79792 0 17.4167C0 27.0354 7.79792 34.8333 17.4167 34.8333C27.0354 34.8333 34.8333 27.0354 34.8333 17.4167C34.8333 7.79792 27.0354 0 17.4167 0ZM19 23.75C19 24.1699 18.8332 24.5727 18.5363 24.8696C18.2393 25.1665 17.8366 25.3333 17.4167 25.3333C16.9967 25.3333 16.594 25.1665 16.2971 24.8696C16.0001 24.5727 15.8333 24.1699 15.8333 23.75V19H11.0833C10.6634 19 10.2607 18.8332 9.96375 18.5363C9.66681 18.2393 9.5 17.8366 9.5 17.4167C9.5 16.9967 9.66681 16.594 9.96375 16.2971C10.2607 16.0001 10.6634 15.8333 11.0833 15.8333H15.8333V11.0833C15.8333 10.6634 16.0001 10.2607 16.2971 9.96375C16.594 9.66681 16.9967 9.5 17.4167 9.5C17.8366 9.5 18.2393 9.66681 18.5363 9.96375C18.8332 10.2607 19 10.6634 19 11.0833V15.8333H23.75C24.1699 15.8333 24.5727 16.0001 24.8696 16.2971C25.1665 16.594 25.3333 16.9967 25.3333 17.4167C25.3333 17.8366 25.1665 18.2393 24.8696 18.5363C24.5727 18.8332 24.1699 19 23.75 19H19V23.75Z" fill="white"/>
</svg>
