<svg width="70" height="63" viewBox="0 0 70 63" fill="none" xmlns="http://www.w3.org/2000/svg">
<ellipse cx="30.7869" cy="31.401" rx="30.7869" ry="31.401" fill="#E8D1F9"/>
<path fill-rule="evenodd" clip-rule="evenodd" d="M36.3125 12.125C36.3125 11.2275 36.9981 10.5 37.8438 10.5H53.1562C54.0019 10.5 54.6875 11.2275 54.6875 12.125V18.625C54.6875 19.5225 54.0019 20.25 53.1562 20.25H37.8438C36.9981 20.25 36.3125 19.5225 36.3125 18.625V12.125ZM39.375 13.75V17H51.625V13.75H39.375Z" fill="#8A19E1"/>
<path fill-rule="evenodd" clip-rule="evenodd" d="M24.0625 18.625C24.0625 17.7275 24.7481 17 25.5938 17H65.4062C66.2519 17 66.9375 17.7275 66.9375 18.625V47.875C66.9375 48.7725 66.2519 49.5 65.4062 49.5H25.5938C24.7481 49.5 24.0625 48.7725 24.0625 47.875V18.625ZM27.125 20.25V46.25H63.875V20.25H27.125Z" fill="#8A19E1"/>
<path fill-rule="evenodd" clip-rule="evenodd" d="M24.0625 18.625C24.0625 17.7275 24.7481 17 25.5938 17H65.4062C66.2519 17 66.9375 17.7275 66.9375 18.625V30C66.9375 30.7746 66.4223 31.4415 65.7066 31.5934L50.3941 34.8434C49.5648 35.0195 48.7581 34.4487 48.5922 33.5687C48.4264 32.6887 48.9642 31.8326 49.7934 31.6566L63.875 28.6678V20.25H27.125V28.6678L41.2066 31.6566C42.0358 31.8326 42.5736 32.6887 42.4078 33.5687C42.2419 34.4487 41.4352 35.0195 40.6059 34.8434L25.2934 31.5934C24.5777 31.4415 24.0625 30.7746 24.0625 30V18.625Z" fill="#FFA841"/>
<path fill-rule="evenodd" clip-rule="evenodd" d="M40.9062 30C40.9062 29.1025 41.5918 28.375 42.4375 28.375H48.5625C49.4082 28.375 50.0938 29.1025 50.0938 30V36.5C50.0938 37.3975 49.4082 38.125 48.5625 38.125H42.4375C41.5918 38.125 40.9062 37.3975 40.9062 36.5V30ZM43.9688 31.625V34.875H47.0312V31.625H43.9688Z" fill="#8A19E1"/>
</svg>
