<svg width="70" height="63" viewBox="0 0 70 63" fill="none" xmlns="http://www.w3.org/2000/svg">
<ellipse cx="31.6066" cy="31.5" rx="31.6066" ry="31.5" fill="#8A19E1" fill-opacity="0.2"/>
<path fill-rule="evenodd" clip-rule="evenodd" d="M31.9963 19.78C35.1054 17.7026 38.7607 16.5938 42.5 16.5938C43.4492 16.5938 44.2188 17.3633 44.2188 18.3125V33.7813H59.6875C60.6367 33.7813 61.4063 34.5508 61.4063 35.5C61.4063 39.2393 60.2974 42.8946 58.22 46.0038C56.1425 49.1129 53.1898 51.5361 49.7351 52.9671C46.2804 54.3981 42.479 54.7725 38.8116 54.043C35.1441 53.3135 31.7754 51.5128 29.1313 48.8687C26.4872 46.2247 24.6865 42.8559 23.957 39.1884C23.2275 35.521 23.6019 31.7196 25.0329 28.2649C26.4639 24.8102 28.8871 21.8575 31.9963 19.78ZM40.7813 20.127C38.3299 20.4011 35.9708 21.2586 33.906 22.6382C31.3622 24.3379 29.3795 26.7538 28.2087 29.5804C27.038 32.4069 26.7316 35.5172 27.3285 38.5178C27.9254 41.5184 29.3986 44.2747 31.562 46.4381C33.7253 48.6014 36.4816 50.0747 39.4822 50.6715C42.4828 51.2684 45.5931 50.9621 48.4196 49.7913C51.2462 48.6205 53.6621 46.6378 55.3618 44.094C56.7414 42.0292 57.5989 39.6701 57.873 37.2188H42.5C42.0442 37.2188 41.607 37.0377 41.2847 36.7153C40.9623 36.393 40.7813 35.9558 40.7813 35.5V20.127Z" fill="#8A19E1"/>
<path fill-rule="evenodd" clip-rule="evenodd" d="M46.4409 11.9409C46.7632 11.6186 47.2004 11.4375 47.6562 11.4375C50.1391 11.4375 52.5975 11.9265 54.8914 12.8767C57.1852 13.8268 59.2694 15.2194 61.025 16.975C62.7806 18.7306 64.1732 20.8148 65.1233 23.1086C66.0735 25.4025 66.5625 27.8609 66.5625 30.3438C66.5625 31.293 65.793 32.0625 64.8438 32.0625H47.6563C46.707 32.0625 45.9375 31.293 45.9375 30.3438L45.9375 13.1562C45.9375 12.7004 46.1186 12.2632 46.4409 11.9409ZM49.375 14.9708L49.375 28.625H63.0292C62.8681 27.1837 62.5047 25.7693 61.9475 24.4241C61.1701 22.5474 60.0307 20.8421 58.5943 19.4057C57.1579 17.9693 55.4526 16.8299 53.5759 16.0525C52.2307 15.4953 50.8163 15.1319 49.375 14.9708Z" fill="#F59F27"/>
</svg>
