<svg width="70" height="63" viewBox="0 0 70 63" fill="none" xmlns="http://www.w3.org/2000/svg">
<g clip-path="url(#clip0_460:2130)">
<circle cx="31.5" cy="31.5" r="31.5" fill="#E8D1F9"/>
<path fill-rule="evenodd" clip-rule="evenodd" d="M22.3682 19.2612C22.3682 18.4282 23.079 17.7529 23.9559 17.7529H65.2371C66.114 17.7529 66.8249 18.4282 66.8249 19.2612V44.9012C66.8249 45.7342 66.114 46.4094 65.2371 46.4094H23.9559C23.079 46.4094 22.3682 45.7342 22.3682 44.9012V19.2612ZM25.5436 20.7694V43.3929H63.6494V20.7694H25.5436Z" fill="#8A19E1"/>
<path fill-rule="evenodd" clip-rule="evenodd" d="M44.5958 43.3929C45.1267 43.3929 45.6224 43.645 45.9169 44.0646L55.4433 57.6387C55.9297 58.3318 55.7326 59.2682 55.0029 59.7302C54.2733 60.1923 53.2876 60.005 52.8011 59.3119L44.5958 47.6202L36.3904 59.3119C35.904 60.005 34.9182 60.1923 34.1886 59.7302C33.459 59.2682 33.2619 58.3318 33.7483 57.6387L43.2747 44.0646C43.5692 43.645 44.0649 43.3929 44.5958 43.3929Z" fill="#8A19E1"/>
<path fill-rule="evenodd" clip-rule="evenodd" d="M28.7188 25.2941C28.7188 24.4611 29.4296 23.7859 30.3065 23.7859H39.8329C40.7098 23.7859 41.4207 24.4611 41.4207 25.2941C41.4207 26.1271 40.7098 26.8024 39.8329 26.8024H30.3065C29.4296 26.8024 28.7188 26.1271 28.7188 25.2941ZM28.7188 31.3271C28.7188 30.4941 29.4296 29.8188 30.3065 29.8188H39.8329C40.7098 29.8188 41.4207 30.4941 41.4207 31.3271C41.4207 32.16 40.7098 32.8353 39.8329 32.8353H30.3065C29.4296 32.8353 28.7188 32.16 28.7188 31.3271ZM28.7188 37.36C28.7188 36.527 29.4296 35.8518 30.3065 35.8518H39.8329C40.7098 35.8518 41.4207 36.527 41.4207 37.36C41.4207 38.193 40.7098 38.8683 39.8329 38.8683H30.3065C29.4296 38.8683 28.7188 38.193 28.7188 37.36Z" fill="#8A19E1"/>
<path fill-rule="evenodd" clip-rule="evenodd" d="M52.5354 26.8024C49.9047 26.8024 47.7722 28.8281 47.7722 31.3271C47.7722 33.826 49.9047 35.8518 52.5354 35.8518C55.166 35.8518 57.2986 33.826 57.2986 31.3271C57.2986 28.8281 55.166 26.8024 52.5354 26.8024ZM44.5967 31.3271C44.5967 27.1622 48.151 23.7859 52.5354 23.7859C56.9198 23.7859 60.4741 27.1622 60.4741 31.3271C60.4741 35.4919 56.9198 38.8683 52.5354 38.8683C48.151 38.8683 44.5967 35.4919 44.5967 31.3271Z" fill="#F59F27"/>
</g>
<defs>
<clipPath id="clip0_460:2130">
<rect width="70" height="63" fill="white"/>
</clipPath>
</defs>
</svg>
