<svg width="131" height="117" viewBox="0 0 131 117" fill="none" xmlns="http://www.w3.org/2000/svg">
<g clip-path="url(#clip0_690:3388)">
<ellipse cx="46.1997" cy="72.5965" rx="46.1997" ry="44.4037" fill="#E8D1F9"/>
<path d="M116.826 7H29.1739C26.8687 7 25 8.86872 25 11.1739V32.0435C25 34.3487 26.8687 36.2174 29.1739 36.2174H116.826C119.131 36.2174 121 34.3487 121 32.0435V11.1739C121 8.86872 119.131 7 116.826 7Z" stroke="#8A19E1" stroke-width="4" stroke-linejoin="round"/>
<path d="M116.826 44.5652H29.1739C26.8687 44.5652 25 46.4339 25 48.7391V69.6087C25 71.9139 26.8687 73.7826 29.1739 73.7826H116.826C119.131 73.7826 121 71.9139 121 69.6087V48.7391C121 46.4339 119.131 44.5652 116.826 44.5652Z" stroke="#F59F27" stroke-width="4" stroke-linejoin="round"/>
<path d="M35.4336 73.7826V80.0435H110.564V73.7826" stroke="#8A19E1" stroke-width="4" stroke-linejoin="round"/>
<path d="M33.3496 36.2174V44.5652" stroke="#8A19E1" stroke-width="4" stroke-linejoin="round"/>
<path d="M112.652 36.2174V44.5652" stroke="#8A19E1" stroke-width="4" stroke-linejoin="round"/>
<path d="M35.4336 13.2609V29.9565" stroke="#8A19E1" stroke-width="4" stroke-linejoin="round"/>
<path d="M102.219 50.8261V67.5217" stroke="#F59F27" stroke-width="4" stroke-linejoin="round"/>
<path d="M43.7832 13.2609V21.6087" stroke="#8A19E1" stroke-width="4" stroke-linejoin="round"/>
<path d="M52.1309 13.2609V21.6087" stroke="#8A19E1" stroke-width="4" stroke-linejoin="round"/>
<path d="M43.7832 25.7826V29.9565" stroke="#8A19E1" stroke-width="4" stroke-linejoin="round"/>
<path d="M110.564 52.9131V57.087" stroke="#F59F27" stroke-width="4" stroke-linejoin="round"/>
<path d="M110.564 61.2609V65.4348" stroke="#F59F27" stroke-width="4" stroke-linejoin="round"/>
<path d="M52.1309 25.7826V29.9565" stroke="#8A19E1" stroke-width="4" stroke-linejoin="round"/>
<path d="M110.564 15.3478H60.4766V27.8696H110.564V15.3478Z" stroke="#8A19E1" stroke-width="4" stroke-linejoin="round"/>
<path d="M75.0858 65.4348H35.4336V52.9131H75.0858" stroke="#F59F27" stroke-width="4" stroke-linejoin="round"/>
<path d="M87.6085 65.4348C91.0663 65.4348 93.8694 62.6317 93.8694 59.1739C93.8694 55.7161 91.0663 52.9131 87.6085 52.9131C84.1507 52.9131 81.3477 55.7161 81.3477 59.1739C81.3477 62.6317 84.1507 65.4348 87.6085 65.4348Z" stroke="#F59F27" stroke-width="4" stroke-linejoin="round"/>
<path d="M81.348 94.6522H64.6523V103H81.348V94.6522Z" stroke="#8A19E1" stroke-width="4" stroke-linejoin="round"/>
<path d="M72.998 94.6522V80.0435" stroke="#8A19E1" stroke-width="4" stroke-linejoin="round"/>
<path d="M87.6094 98.8261H112.653" stroke="#8A19E1" stroke-width="4" stroke-linejoin="round"/>
<path d="M33.3496 98.8261H58.3931" stroke="#8A19E1" stroke-width="4" stroke-linejoin="round"/>
<path d="M33.3478 94.6522H25V103H33.3478V94.6522Z" stroke="#8A19E1" stroke-width="4" stroke-linejoin="round"/>
<path d="M121 94.6522H112.652V103H121V94.6522Z" stroke="#8A19E1" stroke-width="4" stroke-linejoin="round"/>
</g>
<defs>
<clipPath id="clip0_690:3388">
<rect width="131" height="117" fill="white" transform="translate(0 0.00012207)"/>
</clipPath>
</defs>
</svg>
