<svg width="53" height="53" viewBox="0 0 53 53" fill="none" xmlns="http://www.w3.org/2000/svg">
<circle cx="26.5" cy="26.5" r="26.5" fill="white"/>
<path fill-rule="evenodd" clip-rule="evenodd" d="M42 26.5C42 35.0604 35.0604 42 26.5 42C17.9396 42 11 35.0604 11 26.5C11 17.9396 17.9396 11 26.5 11C35.0604 11 42 17.9396 42 26.5ZM27.0554 22.4427C25.5478 23.0698 22.5348 24.3676 18.0162 26.3363C17.2824 26.6281 16.8981 26.9135 16.8631 27.1926C16.8039 27.6644 17.3947 27.8501 18.1991 28.103C18.3085 28.1374 18.4219 28.1731 18.5381 28.2109C19.3295 28.4681 20.3941 28.7691 20.9475 28.781C21.4495 28.7919 22.0098 28.5849 22.6284 28.1602C26.8502 25.3103 29.0296 23.8698 29.1664 23.8388C29.2629 23.8169 29.3967 23.7893 29.4873 23.8699C29.5779 23.9504 29.569 24.103 29.5594 24.1439C29.5009 24.3934 27.1821 26.5491 25.9822 27.6647C25.6081 28.0125 25.3428 28.2592 25.2885 28.3155C25.167 28.4417 25.0432 28.5611 24.9241 28.6759C24.1889 29.3846 23.6375 29.9161 24.9547 30.7841C25.5876 31.2012 26.0941 31.5461 26.5994 31.8902C27.1512 32.266 27.7016 32.6408 28.4137 33.1077C28.5952 33.2266 28.7685 33.3501 28.9372 33.4704C29.5794 33.9283 30.1564 34.3396 30.8692 34.274C31.2833 34.2359 31.7112 33.8464 31.9284 32.6849C32.4419 29.9398 33.4513 23.9921 33.6845 21.5412C33.705 21.3264 33.6793 21.0516 33.6586 20.931C33.638 20.8104 33.5948 20.6385 33.438 20.5112C33.2523 20.3605 32.9656 20.3288 32.8374 20.331C32.2544 20.3413 31.36 20.6523 27.0554 22.4427Z" fill="#8A19E1"/>
</svg>
