<svg width="35" height="35" viewBox="0 0 35 35" fill="none" xmlns="http://www.w3.org/2000/svg">
<circle cx="17.5" cy="17.5" r="17.5" fill="#F59F27"/>
<path d="M16.627 14.319C17.9097 14.319 18.8543 14.5747 19.461 15.086C20.0763 15.5973 20.384 16.282 20.384 17.14C20.384 17.6947 20.2453 18.2017 19.968 18.661C19.6907 19.1117 19.266 19.4757 18.694 19.753C18.1307 20.0217 17.433 20.156 16.601 20.156C15.9597 20.156 15.327 20.0737 14.703 19.909C14.0877 19.7357 13.5633 19.493 13.13 19.181L13.962 17.569C14.3087 17.829 14.7073 18.0327 15.158 18.18C15.6087 18.3187 16.0723 18.388 16.549 18.388C17.0777 18.388 17.4937 18.284 17.797 18.076C18.1003 17.868 18.252 17.5777 18.252 17.205C18.252 16.815 18.0917 16.5203 17.771 16.321C17.459 16.1217 16.913 16.022 16.133 16.022H13.806L14.274 10.9H19.825V12.59H16.029L15.886 14.319H16.627Z" fill="white"/>
</svg>
