<svg width="67" height="64" viewBox="0 0 67 64" fill="none" xmlns="http://www.w3.org/2000/svg">
<g clip-path="url(#clip0_765:1949)">
<ellipse cx="32.1624" cy="32.5" rx="32.4456" ry="31.5" fill="#E8D1F9"/>
<path d="M64.7674 31.208V40H34.2474V33.056L48.9194 19.336C50.3381 17.992 51.2901 16.8533 51.7754 15.92C52.2607 14.9493 52.5034 13.9787 52.5034 13.008C52.5034 11.7387 52.074 10.7493 51.2154 10.04C50.3567 9.33067 49.106 8.976 47.4634 8.976C46.0074 8.976 44.6634 9.312 43.4314 9.984C42.2367 10.6187 41.2474 11.552 40.4634 12.784L32.2314 8.192C33.762 5.65333 35.9087 3.656 38.6714 2.2C41.4341 0.743998 44.7007 0.0159974 48.4714 0.0159974C51.4581 0.0159974 54.0901 0.501331 56.3674 1.472C58.6821 2.44266 60.4741 3.84266 61.7434 5.672C63.0501 7.464 63.7034 9.55467 63.7034 11.944C63.7034 14.072 63.2367 16.088 62.3034 17.992C61.4074 19.8587 59.6527 21.9867 57.0394 24.376L49.6474 31.208H64.7674Z" fill="#8A19E1"/>
</g>
<defs>
<clipPath id="clip0_765:1949">
<rect width="67" height="64" fill="white"/>
</clipPath>
</defs>
</svg>
