<svg width="131" height="117" viewBox="0 0 131 117" fill="none" xmlns="http://www.w3.org/2000/svg">
<g clip-path="url(#clip0_690:3552)">
<ellipse cx="46.1997" cy="72.5965" rx="46.1997" ry="44.4037" fill="#E8D1F9"/>
<path d="M110.087 6H34.913C30.5428 6 27 9.54279 27 13.913V89.087C27 93.4572 30.5428 97 34.913 97H110.087C114.457 97 118 93.4572 118 89.087V13.913C118 9.54279 114.457 6 110.087 6Z" stroke="#8A19E1" stroke-width="4" stroke-linejoin="round"/>
<path d="M32.9355 21.826H112.066" stroke="#8A19E1" stroke-width="4" stroke-linejoin="round"/>
<path d="M34.9121 13.9131H38.8686" stroke="#8A19E1" stroke-width="4" stroke-linejoin="round"/>
<path d="M42.8262 13.9131H46.7827" stroke="#8A19E1" stroke-width="4" stroke-linejoin="round"/>
<path d="M106.129 13.9131H110.085" stroke="#8A19E1" stroke-width="4" stroke-linejoin="round"/>
<path d="M90.3034 87.1087H108.108C108.632 87.1087 109.136 86.9003 109.507 86.5293C109.878 86.1583 110.086 85.6551 110.086 85.1305V33.6957C110.086 33.171 109.878 32.6678 109.507 32.2968C109.136 31.9258 108.632 31.7174 108.108 31.7174H36.8904C36.3657 31.7174 35.8625 31.9258 35.4915 32.2968C35.1205 32.6678 34.9121 33.171 34.9121 33.6957V85.1305C34.9121 85.6551 35.1205 86.1583 35.4915 86.5293C35.8625 86.9003 36.3657 87.1087 36.8904 87.1087H54.6947" stroke="#F59F27" stroke-width="4" stroke-linejoin="round"/>
<path d="M40.8477 39.6305H44.8042" stroke="#F59F27" stroke-width="4" stroke-linejoin="round"/>
<path d="M48.7617 39.6305H52.7182" stroke="#F59F27" stroke-width="4" stroke-linejoin="round"/>
<path d="M100.197 39.6305H104.154" stroke="#F59F27" stroke-width="4" stroke-linejoin="round"/>
<path d="M40.8477 47.5436H104.152" stroke="#F59F27" stroke-width="4" stroke-linejoin="round"/>
<path d="M80.414 71.2826L72.5009 79.1956L64.5879 71.2826" stroke="#8A19E1" stroke-width="4" stroke-linejoin="round"/>
<path d="M72.5 79.1956V55.4564" stroke="#8A19E1" stroke-width="4" stroke-linejoin="round"/>
<path d="M60.6294 77.2174V85.1305C60.6237 85.3918 60.671 85.6516 60.7684 85.8942C60.8658 86.1367 61.0113 86.3571 61.1962 86.5419C61.381 86.7268 61.6013 86.8723 61.8439 86.9697C62.0865 87.0671 62.3463 87.1144 62.6076 87.1087H82.3902C82.6516 87.1144 82.9114 87.0671 83.1539 86.9697C83.3965 86.8723 83.6169 86.7268 83.8017 86.5419C83.9865 86.3571 84.132 86.1367 84.2295 85.8942C84.3269 85.6516 84.3742 85.3918 84.3685 85.1305V77.2174" stroke="#8A19E1" stroke-width="4" stroke-linejoin="round"/>
</g>
<defs>
<clipPath id="clip0_690:3552">
<rect width="131" height="117" fill="white" transform="translate(0 0.00012207)"/>
</clipPath>
</defs>
</svg>
