<svg width="51" height="50" viewBox="0 0 51 50" fill="none" xmlns="http://www.w3.org/2000/svg">
<g clip-path="url(#clip0_168:1524)">
<path d="M25.9953 0C32.6257 0 38.9846 2.63392 43.673 7.32233C48.3614 12.0107 50.9953 18.3696 50.9953 25C50.9953 31.6304 48.3614 37.9893 43.673 42.6777C38.9846 47.3661 32.6257 50 25.9953 50C19.3649 50 13.006 47.3661 8.31763 42.6777C3.62922 37.9893 0.9953 31.6304 0.9953 25C0.9953 18.3696 3.62922 12.0107 8.31763 7.32233C13.006 2.63392 19.3649 0 25.9953 0ZM15.0578 23.4375C14.6434 23.4375 14.246 23.6021 13.9529 23.8951C13.6599 24.1882 13.4953 24.5856 13.4953 25C13.4953 25.4144 13.6599 25.8118 13.9529 26.1049C14.246 26.3979 14.6434 26.5625 15.0578 26.5625L33.1609 26.5625L26.4515 33.2687C26.3063 33.414 26.191 33.5865 26.1124 33.7763C26.0338 33.9661 25.9933 34.1695 25.9933 34.375C25.9933 34.5804 26.0338 34.7839 26.1124 34.9737C26.191 35.1635 26.3063 35.336 26.4515 35.4813C26.5968 35.6265 26.7693 35.7418 26.9591 35.8204C27.1489 35.899 27.3524 35.9395 27.5578 35.9395C27.7633 35.9395 27.9667 35.899 28.1565 35.8204C28.3463 35.7418 28.5188 35.6265 28.6641 35.4813L38.0391 26.1063C38.1846 25.9611 38.3 25.7887 38.3788 25.5989C38.4575 25.409 38.4981 25.2055 38.4981 25C38.4981 24.7945 38.4575 24.591 38.3788 24.4011C38.3 24.2113 38.1846 24.0389 38.0391 23.8937L28.6641 14.5187C28.5188 14.3735 28.3463 14.2582 28.1565 14.1796C27.9667 14.101 27.7633 14.0605 27.5578 14.0605C27.3524 14.0605 27.1489 14.101 26.9591 14.1796C26.7693 14.2582 26.5968 14.3735 26.4515 14.5187C26.3063 14.664 26.191 14.8365 26.1124 15.0263C26.0338 15.2161 25.9933 15.4195 25.9933 15.625C25.9933 15.8304 26.0338 16.0339 26.1124 16.2237C26.191 16.4135 26.3063 16.586 26.4515 16.7313L33.1609 23.4375L15.0578 23.4375Z" fill="#8A19E1"/>
</g>
<defs>
<clipPath id="clip0_168:1524">
<rect width="50" height="50" fill="white" transform="translate(0.9953)"/>
</clipPath>
</defs>
</svg>
