<svg width="59" height="50" viewBox="0 0 59 50" fill="none" xmlns="http://www.w3.org/2000/svg">
<g clip-path="url(#clip0_1039_2517)">
<ellipse cx="25.7535" cy="25" rx="24.8658" ry="25" fill="#E8D1F9"/>
<path fill-rule="evenodd" clip-rule="evenodd" d="M18.791 12.6723C18.791 11.8822 19.4272 11.2417 20.2119 11.2417H57.1554C57.9402 11.2417 58.5764 11.8822 58.5764 12.6723V36.992C58.5764 37.7821 57.9402 38.4226 57.1554 38.4226H42.7855L39.9142 43.4296C39.6604 43.8723 39.1913 44.1449 38.6837 44.1449C38.176 44.1449 37.707 43.8723 37.4531 43.4296L34.5819 38.4226H20.2119C19.4272 38.4226 18.791 37.7821 18.791 36.992V12.6723ZM21.6328 14.1028V35.5615H35.4022C35.9099 35.5615 36.379 35.8341 36.6328 36.2768L38.6837 39.8532L40.7346 36.2768C40.9884 35.8341 41.4575 35.5615 41.9651 35.5615H55.7345V14.1028H21.6328Z" fill="#8A19E1"/>
<path fill-rule="evenodd" clip-rule="evenodd" d="M38.5984 22.0199C38.5251 21.9278 38.4459 21.8389 38.361 21.7535C37.1125 20.4983 35.0883 20.4983 33.8397 21.7535C32.5912 23.0088 32.5912 25.044 33.8397 26.2992C33.9246 26.3846 34.0131 26.4641 34.1047 26.5379L34.0909 26.5517L38.6122 31.0974L43.1335 26.5517L43.1197 26.5379C43.2113 26.4641 43.2998 26.3846 43.3847 26.2992C44.6332 25.044 44.6332 23.0088 43.3847 21.7535C42.1362 20.4983 40.1119 20.4983 38.8634 21.7535C38.7785 21.8389 38.6994 21.9279 38.626 22.0199L38.6122 22.006L38.5984 22.0199Z" fill="#F59F27"/>
</g>
<defs>
<clipPath id="clip0_1039_2517">
<rect width="57.6887" height="50.0001" fill="white" transform="translate(0.887695)"/>
</clipPath>
</defs>
</svg>
