<svg width="70" height="63" viewBox="0 0 70 63" fill="none" xmlns="http://www.w3.org/2000/svg">
<g clip-path="url(#clip0_690_3230)">
<ellipse cx="30.7869" cy="31.401" rx="30.7869" ry="31.401" fill="#E8D1F9"/>
<path fill-rule="evenodd" clip-rule="evenodd" d="M21.998 9.98251C21.998 7.3214 24.1472 5.16415 26.7984 5.16415H62.0008C64.652 5.16415 66.8011 7.3214 66.8011 9.98251C66.8011 12.6436 64.652 14.8009 62.0008 14.8009H26.7984C24.1472 14.8009 21.998 12.6436 21.998 9.98251ZM26.7984 8.37639C25.9147 8.37639 25.1983 9.09548 25.1983 9.98251C25.1983 10.8695 25.9147 11.5886 26.7984 11.5886H62.0008C62.8845 11.5886 63.6009 10.8695 63.6009 9.98251C63.6009 9.09548 62.8845 8.37639 62.0008 8.37639H26.7984Z" fill="#8A19E1"/>
<path fill-rule="evenodd" clip-rule="evenodd" d="M21.998 35.6805C21.998 33.0194 24.1472 30.8621 26.7984 30.8621H62.0008C64.652 30.8621 66.8011 33.0194 66.8011 35.6805C66.8011 38.3416 64.652 40.4988 62.0008 40.4988H26.7984C24.1472 40.4988 21.998 38.3416 21.998 35.6805ZM26.7984 34.0744C25.9147 34.0744 25.1983 34.7934 25.1983 35.6805C25.1983 36.5675 25.9147 37.2866 26.7984 37.2866H62.0008C62.8845 37.2866 63.6009 36.5675 63.6009 35.6805C63.6009 34.7934 62.8845 34.0744 62.0008 34.0744H26.7984Z" fill="#8A19E1"/>
<path fill-rule="evenodd" clip-rule="evenodd" d="M25.1973 13.1948C25.1973 12.3077 25.9137 11.5886 26.7974 11.5886H61.9998C62.8835 11.5886 63.5999 12.3077 63.5999 13.1948V32.4682C63.5999 33.3553 62.8835 34.0743 61.9998 34.0743H26.7974C25.9137 34.0743 25.1973 33.3553 25.1973 32.4682V13.1948ZM28.3975 14.8009V30.8621H60.3997V14.8009H28.3975Z" fill="#8A19E1"/>
<path fill-rule="evenodd" clip-rule="evenodd" d="M44.3981 37.2866C44.9121 37.2866 45.3948 37.5344 45.6956 37.9528L52.6242 47.5895C53.1414 48.3088 52.9797 49.3127 52.2631 49.8318C51.5465 50.3509 50.5464 50.1886 50.0292 49.4694L44.3981 41.6373L38.7669 49.4694C38.2497 50.1886 37.2496 50.3509 36.533 49.8318C35.8164 49.3127 35.6547 48.3088 36.1719 47.5895L43.1005 37.9528C43.4013 37.5344 43.884 37.2866 44.3981 37.2866Z" fill="#8A19E1"/>
<path fill-rule="evenodd" clip-rule="evenodd" d="M56.7784 16.9278C57.3755 17.5817 57.3315 18.5977 56.6801 19.1971L47.0794 28.0308C46.5221 28.5435 45.6833 28.5948 45.0681 28.1538L40.4876 24.8696L35.8387 28.8693C35.1678 29.4466 34.1576 29.3686 33.5825 28.6951C33.0074 28.0216 33.0851 27.0077 33.7561 26.4304L39.3565 21.612C39.9153 21.1312 40.7289 21.0951 41.3278 21.5245L45.8729 24.7832L54.5176 16.8292C55.169 16.2298 56.1812 16.274 56.7784 16.9278Z" fill="#FFA841"/>
</g>
<defs>
<clipPath id="clip0_690_3230">
<rect width="70" height="63" fill="white"/>
</clipPath>
</defs>
</svg>
