<svg width="59" height="50" viewBox="0 0 59 50" fill="none" xmlns="http://www.w3.org/2000/svg">
<g clip-path="url(#clip0_1039_2499)">
<ellipse cx="25.6949" cy="25" rx="24.8658" ry="25" fill="#E8D1F9"/>
<path fill-rule="evenodd" clip-rule="evenodd" d="M46.0846 23.5C46.0846 22.8096 46.6412 22.25 47.3279 22.25H53.5443C54.231 22.25 54.7876 22.8096 54.7876 23.5V42.25C54.7876 42.9404 54.231 43.5 53.5443 43.5H47.3279C46.6412 43.5 46.0846 42.9404 46.0846 42.25V23.5ZM48.5712 24.75V41H52.301V24.75H48.5712ZM33.6517 28.5C33.6517 27.8096 34.2083 27.25 34.895 27.25H41.1114C41.7981 27.25 42.3547 27.8096 42.3547 28.5V42.25C42.3547 42.9404 41.7981 43.5 41.1114 43.5H34.895C34.2083 43.5 33.6517 42.9404 33.6517 42.25V28.5ZM36.1383 29.75V41H39.8681V29.75H36.1383ZM21.2188 33.5C21.2188 32.8096 21.7754 32.25 22.462 32.25H28.6785C29.3652 32.25 29.9218 32.8096 29.9218 33.5V42.25C29.9218 42.9404 29.3652 43.5 28.6785 43.5H22.462C21.7754 43.5 21.2188 42.9404 21.2188 42.25V33.5ZM23.7053 34.75V41H27.4352V34.75H23.7053Z" fill="#8A19E1"/>
<path fill-rule="evenodd" clip-rule="evenodd" d="M48.5714 9.75C48.5714 9.05964 49.128 8.5 49.8147 8.5H54.7879C55.4745 8.5 56.0311 9.05964 56.0311 9.75V14.75C56.0311 15.4404 55.4745 16 54.7879 16C54.1012 16 53.5446 15.4404 53.5446 14.75V12.5336L44.4242 20.6843C44.0118 21.0528 43.4072 21.104 42.9393 20.81L33.6147 14.9507L23.0661 20.8427C22.4658 21.178 21.7089 20.9605 21.3754 20.3571C21.042 19.7536 21.2582 18.9926 21.8585 18.6573L33.0481 12.4073C33.4436 12.1864 33.9272 12.1989 34.3108 12.44L43.4679 18.194L51.5177 11H49.8147C49.128 11 48.5714 10.4404 48.5714 9.75Z" fill="#F59F27"/>
</g>
<defs>
<clipPath id="clip0_1039_2499">
<rect width="57.6887" height="50.0001" fill="white" transform="translate(0.829102)"/>
</clipPath>
</defs>
</svg>
