<svg width="70" height="63" viewBox="0 0 70 63" fill="none" xmlns="http://www.w3.org/2000/svg">
<circle cx="31.5" cy="31.5" r="31.5" fill="#E8D1F9"/>
<path fill-rule="evenodd" clip-rule="evenodd" d="M26.9283 11.8195C27.7295 11.8195 28.379 12.469 28.379 13.2703V49.5388H64.6476C65.4488 49.5388 66.0983 50.1883 66.0983 50.9895C66.0983 51.7908 65.4488 52.4403 64.6476 52.4403H26.9283C26.1271 52.4403 25.4775 51.7908 25.4775 50.9895V13.2703C25.4775 12.469 26.1271 11.8195 26.9283 11.8195Z" fill="#8A19E1"/>
<path fill-rule="evenodd" clip-rule="evenodd" d="M65.1568 17.7148C65.907 17.9962 66.2871 18.8324 66.0058 19.5826L59.4774 36.9915C59.2651 37.5577 58.7238 37.9328 58.1191 37.9328H50.9164L45.5441 45.9913C45.303 46.3529 44.9125 46.5874 44.48 46.6302C44.0474 46.6731 43.6185 46.5197 43.3112 46.2124L39.1392 42.0404L33.6218 46.3317C32.9893 46.8236 32.0778 46.7097 31.5859 46.0772C31.094 45.4448 31.208 44.5333 31.8404 44.0414L38.3687 38.9638C38.9463 38.5146 39.7679 38.5658 40.2852 39.0831L44.1115 42.9094L48.9329 35.6774C49.202 35.2738 49.6549 35.0314 50.14 35.0314H57.1137L63.289 18.5638C63.5703 17.8136 64.4066 17.4335 65.1568 17.7148Z" fill="#F59F27"/>
</svg>
