<svg width="68" height="63" viewBox="0 0 68 63" fill="none" xmlns="http://www.w3.org/2000/svg">
<g clip-path="url(#clip0_765:1953)">
<ellipse cx="32.0516" cy="31.5" rx="32.3856" ry="31.5" fill="#E8D1F9"/>
<path d="M49.0311 14.08C54.5191 14.08 58.5697 15.2 61.1831 17.44C63.8337 19.68 65.1591 22.6667 65.1591 26.4C65.1591 28.8267 64.5244 31.0667 63.2551 33.12C62.0231 35.136 60.1191 36.76 57.5431 37.992C55.0044 39.1867 51.8497 39.784 48.0791 39.784C45.3164 39.784 42.5724 39.448 39.8471 38.776C37.1591 38.104 34.8444 37.152 32.9031 35.92L36.8791 27.576C38.4471 28.6213 40.1644 29.424 42.0311 29.984C43.9351 30.544 45.8391 30.824 47.7431 30.824C49.6471 30.824 51.1591 30.4693 52.2791 29.76C53.4364 29.0133 54.0151 27.9867 54.0151 26.68C54.0151 25.3733 53.4551 24.384 52.3351 23.712C51.2151 23.04 49.2364 22.704 46.3991 22.704H35.7591L37.7191 -0.200003H62.6951V8.368H46.9031L46.3991 14.08H49.0311Z" fill="#8A19E1"/>
</g>
<defs>
<clipPath id="clip0_765:1953">
<rect width="68" height="63" fill="white"/>
</clipPath>
</defs>
</svg>
