<svg width="70" height="63" viewBox="0 0 70 63" fill="none" xmlns="http://www.w3.org/2000/svg">
<ellipse cx="30.7869" cy="31.401" rx="30.7869" ry="31.401" fill="#E8D1F9"/>
<path fill-rule="evenodd" clip-rule="evenodd" d="M55.0311 51.6186C55.6123 52.1271 56.4802 52.1271 57.0614 51.6186L63.2281 46.2227C63.8689 45.662 63.9338 44.6881 63.3731 44.0473C62.8125 43.4065 61.8385 43.3416 61.1977 43.9023L57.5879 47.0609V16.5417C57.5879 15.6902 56.8977 15 56.0462 15C55.1948 15 54.5046 15.6902 54.5046 16.5417V47.0609L50.8948 43.9023C50.254 43.3416 49.28 43.4065 48.7194 44.0473C48.1587 44.6881 48.2236 45.662 48.8644 46.2227L55.0311 51.6186Z" fill="#8A19E1"/>
<path fill-rule="evenodd" clip-rule="evenodd" d="M24.959 34.3198C25.2844 34.2234 25.6297 34.2234 25.9551 34.3198C27.7183 34.8424 29.9705 35.1675 32.4545 35.1675C34.9385 35.1675 37.1908 34.8424 38.954 34.3198C39.2794 34.2234 39.6247 34.2234 39.9501 34.3198C41.4855 34.7749 42.8765 35.3986 43.9246 36.208C44.9479 36.9983 45.9091 38.1874 45.9091 39.7673C45.9091 41.0992 45.2179 42.1615 44.4057 42.9191C43.594 43.6761 42.5195 44.2734 41.3438 44.7372C38.9805 45.6695 35.8372 46.2071 32.4545 46.2071C29.0719 46.2071 25.9286 45.6695 23.5653 44.7372C22.3896 44.2734 21.3151 43.6761 20.5034 42.9191C19.6911 42.1615 19 41.0992 19 39.7673C19 38.1874 19.9612 36.9983 20.9845 36.208C22.0326 35.3986 23.4236 34.7749 24.959 34.3198ZM22.5897 39.7689C22.6022 39.814 22.6615 39.958 22.9172 40.1965C23.2856 40.5401 23.9187 40.934 24.8532 41.3026C26.7103 42.0351 29.3972 42.5272 32.4545 42.5272C35.5119 42.5272 38.1988 42.0351 40.0559 41.3026C40.9903 40.934 41.6235 40.5401 41.9919 40.1965C42.2476 39.958 42.3069 39.8139 42.3193 39.7689C42.3052 39.7165 42.2209 39.4987 41.7663 39.1477C41.2628 38.7588 40.48 38.3551 39.4242 38.0029C37.3953 38.5435 34.9983 38.8473 32.4545 38.8473C29.9108 38.8473 27.5138 38.5435 25.4849 38.0029C24.4291 38.3551 23.6463 38.7588 23.1428 39.1477C22.6882 39.4987 22.6039 39.7165 22.5897 39.7689ZM42.3223 39.7537C42.3225 39.7537 42.3223 39.756 42.3214 39.7606C42.3216 39.756 42.3221 39.7537 42.3223 39.7537ZM22.5877 39.7606C22.5867 39.756 22.5866 39.7537 22.5868 39.7537C22.587 39.7537 22.5874 39.756 22.5877 39.7606Z" fill="#8A19E1"/>
<path fill-rule="evenodd" clip-rule="evenodd" d="M24.959 26.845C25.2844 26.7486 25.6297 26.7486 25.9551 26.845C27.7183 27.3676 29.9705 27.6927 32.4545 27.6927C34.9385 27.6927 37.1908 27.3676 38.954 26.845C39.2794 26.7486 39.6247 26.7486 39.9501 26.845C41.4855 27.3001 42.8765 27.9238 43.9246 28.7332C44.9479 29.5236 45.9091 30.7126 45.9091 32.2925C45.9091 33.6244 45.2179 34.6867 44.4057 35.4443C43.594 36.2013 42.5195 36.7986 41.3438 37.2624C38.9805 38.1947 35.8372 38.7323 32.4545 38.7323C29.0719 38.7323 25.9286 38.1947 23.5653 37.2624C22.3896 36.7986 21.3151 36.2013 20.5034 35.4443C19.6911 34.6867 19 33.6244 19 32.2925C19 30.7126 19.9612 29.5236 20.9845 28.7332C22.0326 27.9238 23.4236 27.3001 24.959 26.845ZM22.5897 32.2941C22.6022 32.3392 22.6615 32.4832 22.9172 32.7217C23.2856 33.0653 23.9187 33.4592 24.8532 33.8278C26.7103 34.5604 29.3972 35.0524 32.4545 35.0524C35.5119 35.0524 38.1988 34.5604 40.0559 33.8278C40.9903 33.4592 41.6235 33.0653 41.9919 32.7217C42.2476 32.4832 42.3069 32.3392 42.3193 32.2941C42.3052 32.2417 42.2209 32.0239 41.7663 31.6729C41.2628 31.284 40.48 30.8803 39.4242 30.5281C37.3953 31.0687 34.9983 31.3726 32.4545 31.3726C29.9108 31.3726 27.5138 31.0687 25.4849 30.5281C24.4291 30.8803 23.6463 31.284 23.1428 31.6729C22.6882 32.0239 22.6039 32.2417 22.5897 32.2941ZM42.3223 32.2789C42.3225 32.2789 42.3223 32.2812 42.3214 32.2858C42.3216 32.2812 42.3221 32.2789 42.3223 32.2789ZM22.5877 32.2858C22.5867 32.2812 22.5866 32.2789 22.5868 32.2789C22.587 32.2789 22.5874 32.2812 22.5877 32.2858Z" fill="#F59F27"/>
<path fill-rule="evenodd" clip-rule="evenodd" d="M22.7861 24.5446C22.7859 24.5446 22.786 24.5421 22.787 24.5373C22.7867 24.5422 22.7862 24.5446 22.7861 24.5446ZM22.7887 24.5303C22.8008 24.4853 22.8616 24.3342 23.1348 24.082C23.5237 23.723 24.192 23.3116 25.1784 22.9265C27.1386 22.1612 29.9748 21.6472 33.202 21.6472C36.4292 21.6472 39.2654 22.1612 41.2256 22.9265C42.212 23.3116 42.8804 23.723 43.2692 24.082C43.5425 24.3342 43.6033 24.4853 43.6153 24.5303C43.6033 24.5753 43.5425 24.7265 43.2692 24.9787C42.8804 25.3376 42.212 25.749 41.2256 26.1341C39.2654 26.8994 36.4292 27.4134 33.202 27.4134C29.9748 27.4134 27.1386 26.8994 25.1784 26.1341C24.192 25.749 23.5237 25.3376 23.1348 24.9787C22.8616 24.7265 22.8008 24.5753 22.7887 24.5303ZM43.618 24.5446C43.6178 24.5446 43.6173 24.5422 43.617 24.5373C43.618 24.5421 43.6182 24.5446 43.618 24.5446ZM43.617 24.5233C43.6173 24.5185 43.6178 24.516 43.618 24.516C43.6182 24.5161 43.618 24.5185 43.617 24.5233ZM22.787 24.5233C22.786 24.5185 22.7859 24.5161 22.7861 24.516C22.7862 24.516 22.7867 24.5185 22.787 24.5233ZM23.8189 19.3386C26.3135 18.3647 29.6315 17.803 33.202 17.803C36.7726 17.803 40.0906 18.3647 42.5852 19.3386C43.8261 19.823 44.9603 20.447 45.8171 21.2379C46.6745 22.0292 47.404 23.139 47.404 24.5303C47.404 25.9216 46.6745 27.0314 45.8171 27.8228C44.9603 28.6136 43.8261 29.2376 42.5852 29.7221C40.0906 30.6959 36.7726 31.2576 33.202 31.2576C29.6315 31.2576 26.3135 30.6959 23.8189 29.7221C22.5779 29.2376 21.4437 28.6136 20.5869 27.8228C19.7295 27.0314 19 25.9216 19 24.5303C19 23.139 19.7295 22.0292 20.5869 21.2379C21.4437 20.447 22.5779 19.823 23.8189 19.3386Z" fill="#8A19E1"/>
</svg>
