<svg width="45" height="41" viewBox="0 0 45 41" fill="none" xmlns="http://www.w3.org/2000/svg">
<circle cx="20" cy="20" r="20" fill="#8A19E1" fill-opacity="0.2"/>
<path fill-rule="evenodd" clip-rule="evenodd" d="M35.6621 20.085C36.2375 20.0856 36.7529 20.4411 36.9579 20.9788C37.0112 21.1187 37.0553 21.2633 37.09 21.4118L37.09 21.4118C37.1487 21.6635 37.4373 21.7831 37.6568 21.6466C40.4914 19.8845 43.7634 23.1565 42.0013 25.9911C41.8648 26.2106 41.9844 26.4992 42.2361 26.5579C45.4864 27.3163 45.4864 31.9435 42.2361 32.7019C41.9844 32.7606 41.8648 33.0492 42.0013 33.2687C43.7634 36.1033 40.4914 39.3753 37.6568 37.6132C37.4373 37.4767 37.1487 37.5963 37.09 37.848C36.3316 41.0983 31.7044 41.0983 30.946 37.848C30.8873 37.5963 30.5987 37.4767 30.3792 37.6132C27.5446 39.3753 24.2726 36.1033 26.0347 33.2687C26.1712 33.0492 26.0516 32.7606 25.7999 32.7019C25.7999 32.7019 25.7999 32.7019 25.7999 32.7019M35.6621 20.085C35.0867 20.0843 34.5705 20.4386 34.3642 20.9757L35.6621 20.085ZM34.3642 20.9757C34.2702 21.2205 34.0775 21.4325 33.7056 21.5193L34.3642 20.9757ZM35.4601 23.7695C35.1289 23.9707 34.7536 24.1264 34.3366 24.2237C33.7684 24.3563 33.4708 24.9597 33.6739 25.4784C33.7875 25.4691 33.9023 25.4643 34.018 25.4643C36.3186 25.4643 38.1836 27.3293 38.1836 29.6299C38.1836 31.9305 36.3186 33.7955 34.018 33.7955C32.3137 33.7955 30.849 32.7725 30.2038 31.3065C29.6749 31.2472 29.1414 31.0681 28.634 30.7527L29.2138 29.82L28.634 30.7527C28.3613 30.5832 28.0458 30.5724 27.7799 30.6821C28.8992 31.6527 29.2499 33.3568 28.3932 34.7349C28.3205 34.8518 28.3196 34.9299 28.3273 34.9809C28.3374 35.0467 28.3741 35.1283 28.4469 35.201C28.5196 35.2738 28.6012 35.3105 28.667 35.3206C28.718 35.3283 28.7961 35.3274 28.913 35.2547C30.7475 34.1143 33.1596 35.1134 33.6504 37.217C33.6817 37.3511 33.7363 37.407 33.7778 37.4375C33.8314 37.477 33.9152 37.5087 34.018 37.5087C34.1208 37.5087 34.2045 37.477 34.2581 37.4375C34.2997 37.407 34.3543 37.3511 34.3856 37.217C34.8764 35.1134 37.2885 34.1143 39.123 35.2547C39.2399 35.3274 39.318 35.3283 39.369 35.3205C39.4348 35.3105 39.5164 35.2738 39.5891 35.201C39.6618 35.1283 39.6986 35.0467 39.7086 34.9809C39.7164 34.9299 39.7155 34.8518 39.6428 34.7349C38.5024 32.9004 39.5015 30.4883 41.6051 29.9975C41.7392 29.9662 41.7951 29.9116 41.8256 29.8701C41.8651 29.8165 41.8968 29.7327 41.8968 29.6299C41.8968 29.5271 41.8651 29.4434 41.8256 29.3898C41.7951 29.3482 41.7392 29.2936 41.6051 29.2623C39.5015 28.7715 38.5024 26.3594 39.6428 24.5249C39.7155 24.408 39.7164 24.3299 39.7086 24.2789C39.6986 24.2131 39.6618 24.1315 39.5891 24.0588C39.5164 23.9861 39.4348 23.9493 39.369 23.9393C39.318 23.9315 39.2399 23.9324 39.123 24.0051C37.9146 24.7563 36.4555 24.5792 35.4601 23.7695ZM33.7056 21.5193C31.2274 22.0975 30.0503 24.9393 31.3938 27.1006L33.7056 21.5193ZM34.018 28.2414C33.8128 28.2414 33.6215 28.285 33.4498 28.3622C33.0719 28.5321 32.6379 28.5244 32.2664 28.3412C31.8948 28.1579 31.6244 27.8184 31.5291 27.4152C31.5074 27.3234 31.4666 27.2177 31.3938 27.1006M34.018 28.2414C34.7849 28.2414 35.4065 28.863 35.4065 29.6299L34.018 28.2414ZM24.5189 30.7061C25.0971 28.2278 27.9389 27.0507 30.1001 28.3942C30.3878 28.5731 30.6371 28.5783 30.8443 28.5152C31.2475 28.3923 31.6846 28.4593 32.0326 28.6971C32.3805 28.9349 32.6016 29.3179 32.6336 29.7381C32.688 30.4537 33.2877 31.0184 34.018 31.0184C34.7849 31.0184 35.4065 30.3968 35.4065 29.6299M24.5189 30.7061L25.6121 30.9611L24.5189 30.7061ZM25.7999 32.7019C25.617 32.6592 25.4404 32.6023 25.271 32.5315C24.6016 32.2515 24.2606 31.5033 24.4885 30.8144C24.4996 30.781 24.5098 30.7449 24.5189 30.7061L25.6121 30.9611" fill="#F59F27"/>
<path fill-rule="evenodd" clip-rule="evenodd" d="M19.9853 9.87199C20.8787 6.04267 26.3303 6.04267 27.2237 9.87199C27.3698 10.4984 28.0881 10.7959 28.6344 10.4563C31.9739 8.38033 35.8287 12.2351 33.7527 15.5746C33.4131 16.1209 33.7106 16.8392 34.337 16.9853C38.1663 17.8787 38.1663 23.3303 34.337 24.2237C33.7106 24.3698 33.4131 25.0881 33.7527 25.6344C35.8287 28.9739 31.9739 32.8287 28.6344 30.7527C28.0881 30.4131 27.3698 30.7106 27.2237 31.337C26.3303 35.1663 20.8787 35.1663 19.9853 31.337C19.8392 30.7106 19.1209 30.4131 18.5746 30.7527C15.2351 32.8287 11.3803 28.9739 13.4563 25.6344C13.7959 25.0881 13.4984 24.3698 12.872 24.2237C9.04267 23.3303 9.04267 17.8787 12.872 16.9853C13.4984 16.8392 13.7959 16.1209 13.4563 15.5746C11.3803 12.2351 15.2351 8.38033 18.5746 10.4563C19.1209 10.7959 19.8392 10.4984 19.9853 9.87199ZM24.5193 10.503C24.2935 9.53507 22.9156 9.53507 22.6897 10.503C22.1115 12.9812 19.2697 14.1583 17.1085 12.8148C16.2644 12.2901 15.2901 13.2644 15.8148 14.1085C17.1583 16.2697 15.9812 19.1115 13.503 19.6897C12.5351 19.9156 12.5351 21.2935 13.503 21.5193C15.9812 22.0975 17.1583 24.9393 15.8148 27.1005C15.2901 27.9446 16.2644 28.9189 17.1085 28.3942C19.2697 27.0507 22.1115 28.2278 22.6897 30.7061C22.9156 31.6739 24.2935 31.6739 24.5193 30.7061C25.0975 28.2278 27.9393 27.0507 30.1005 28.3942C30.9446 28.9189 31.9189 27.9446 31.3942 27.1005C30.0507 24.9393 31.2278 22.0975 33.7061 21.5193C34.6739 21.2935 34.6739 19.9156 33.7061 19.6897C31.2278 19.1115 30.0507 16.2697 31.3942 14.1085C31.9189 13.2644 30.9446 12.2901 30.1005 12.8148C27.9393 14.1583 25.0975 12.9812 24.5193 10.503Z" fill="#8A19E1"/>
<path fill-rule="evenodd" clip-rule="evenodd" d="M23.6045 18.5219C22.4542 18.5219 21.5217 19.4544 21.5217 20.6047C21.5217 21.755 22.4542 22.6875 23.6045 22.6875C24.7547 22.6875 25.6872 21.755 25.6872 20.6047C25.6872 19.4544 24.7547 18.5219 23.6045 18.5219ZM18.7446 20.6047C18.7446 17.9207 20.9204 15.7449 23.6045 15.7449C26.2885 15.7449 28.4643 17.9207 28.4643 20.6047C28.4643 23.2887 26.2885 25.4645 23.6045 25.4645C20.9204 25.4645 18.7446 23.2887 18.7446 20.6047Z" fill="#F59F27"/>
</svg>
