<svg width="19" height="16" viewBox="0 0 19 16" fill="none" xmlns="http://www.w3.org/2000/svg">
<path d="M3.04376 0C2.2365 0 1.46231 0.320681 0.891496 0.891496C0.320681 1.46231 0 2.2365 0 3.04376V3.34966L9.13127 8.26685L18.2625 3.35118V3.04376C18.2625 2.2365 17.9419 1.46231 17.371 0.891496C16.8002 0.320681 16.026 0 15.2188 0H3.04376Z" fill="#8A19E1"/>
<path d="M18.2625 5.07812L9.49196 9.80051C9.3811 9.86019 9.25717 9.89143 9.13127 9.89143C9.00538 9.89143 8.88144 9.86019 8.77059 9.80051L0 5.07812V12.1746C0 12.9819 0.320681 13.7561 0.891496 14.3269C1.46231 14.8977 2.2365 15.2184 3.04376 15.2184H15.2188C16.026 15.2184 16.8002 14.8977 17.371 14.3269C17.9419 13.7561 18.2625 12.9819 18.2625 12.1746V5.07812Z" fill="#8A19E1"/>
</svg>
