<svg width="19" height="19" viewBox="0 0 19 19" fill="none" xmlns="http://www.w3.org/2000/svg">
<path d="M9.5 0C4.25329 0 0 4.25329 0 9.5C0 14.7467 4.25329 19 9.5 19C14.7467 19 19 14.7467 19 9.5C19 4.25329 14.7467 0 9.5 0ZM6.08594 3.77356C6.28167 3.76202 6.45859 3.87901 6.59271 4.08666L7.89154 6.54979C8.02829 6.84166 7.95058 7.15418 7.74658 7.36272L7.15168 7.95763C7.11496 8.00795 7.0908 8.06461 7.09021 8.12693C7.31836 9.01004 8.0104 9.82463 8.621 10.3848C9.23156 10.945 9.88781 11.7034 10.7397 11.8831C10.845 11.9125 10.974 11.923 11.0493 11.853L11.7405 11.1491C11.9791 10.9682 12.3242 10.8806 12.5789 11.0285H12.5905L14.9342 12.4119C15.2782 12.6276 15.3138 13.0444 15.0675 13.2979L13.4533 14.8994C13.2149 15.1439 12.8982 15.2261 12.5905 15.2264C11.2297 15.1857 9.94387 14.5178 8.88772 13.8314C7.15413 12.5702 5.56394 11.006 4.56562 9.11615C4.18274 8.32369 3.73296 7.31258 3.77589 6.42806C3.77972 6.09531 3.86975 5.76932 4.10408 5.55484L5.71833 3.94058C5.84408 3.83358 5.96849 3.78049 6.08594 3.77356Z" fill="#8A19E1"/>
</svg>
