<svg width="70" height="63" viewBox="0 0 70 63" fill="none" xmlns="http://www.w3.org/2000/svg">
<ellipse cx="31.6066" cy="31.5" rx="31.6066" ry="31.5" fill="#8A19E1" fill-opacity="0.2"/>
<path fill-rule="evenodd" clip-rule="evenodd" d="M44 16.2466C38.1745 16.2466 33.4521 20.9691 33.4521 26.7946C33.4521 30.1248 34.9934 33.0939 37.4083 35.0298C37.817 35.3573 38.0548 35.8528 38.0548 36.3765V40.411H49.1781V36.9441C49.1781 36.3732 49.4603 35.8393 49.932 35.5178C52.722 33.6163 54.5479 30.4184 54.5479 26.7946C54.5479 20.9691 49.8255 16.2466 44 16.2466ZM30 26.7946C30 19.0626 36.268 12.7946 44 12.7946C51.732 12.7946 58 19.0626 58 26.7946C58 31.2723 55.8965 35.2583 52.6301 37.8188V42.137C52.6301 43.0903 51.8574 43.863 50.9041 43.863H36.3288C35.3755 43.863 34.6027 43.0903 34.6027 42.137V37.1721C31.7781 34.6127 30 30.9108 30 26.7946Z" fill="#8A19E1"/>
<path fill-rule="evenodd" clip-rule="evenodd" d="M43.8081 30.0548C44.7613 30.0548 45.5341 30.8276 45.5341 31.7808V42.137C45.5341 43.0903 44.7613 43.863 43.8081 43.863C42.8548 43.863 42.082 43.0903 42.082 42.137V31.7808C42.082 30.8276 42.8548 30.0548 43.8081 30.0548Z" fill="#8A19E1"/>
<path fill-rule="evenodd" clip-rule="evenodd" d="M43.808 26.6028C42.8547 26.6028 42.0819 27.3756 42.0819 28.3288C42.0819 29.2821 42.8547 30.0549 43.808 30.0549C44.7612 30.0549 45.534 29.2821 45.534 28.3288C45.534 27.3756 44.7612 26.6028 43.808 26.6028ZM38.6299 28.3288C38.6299 25.4691 40.9482 23.1508 43.808 23.1508C46.6677 23.1508 48.986 25.4691 48.986 28.3288C48.986 31.1886 46.6677 33.5069 43.808 33.5069C40.9482 33.5069 38.6299 31.1886 38.6299 28.3288Z" fill="#8A19E1"/>
<path fill-rule="evenodd" clip-rule="evenodd" d="M33.4512 52.4931C33.4512 49.6334 35.7695 47.3151 38.6293 47.3151H48.9854C51.8452 47.3151 54.1635 49.6334 54.1635 52.4931C54.1635 55.3529 51.8452 57.6712 48.9854 57.6712H38.6293C35.7695 57.6712 33.4512 55.3529 33.4512 52.4931ZM38.6293 50.7671C37.676 50.7671 36.9032 51.5399 36.9032 52.4931C36.9032 53.4464 37.676 54.2192 38.6293 54.2192H48.9854C49.9387 54.2192 50.7114 53.4464 50.7114 52.4931C50.7114 51.5399 49.9387 50.7671 48.9854 50.7671H38.6293Z" fill="#8A19E1"/>
<path fill-rule="evenodd" clip-rule="evenodd" d="M31.7256 45.5891C31.7256 42.7293 34.0439 40.411 36.9037 40.411H50.7119C53.5717 40.411 55.89 42.7293 55.89 45.5891C55.89 48.4489 53.5717 50.7672 50.7119 50.7672H36.9037C34.0439 50.7672 31.7256 48.4489 31.7256 45.5891ZM36.9037 43.8631C35.9504 43.8631 35.1776 44.6358 35.1776 45.5891C35.1776 46.5424 35.9504 47.3151 36.9037 47.3151H50.7119C51.6651 47.3151 52.4379 46.5424 52.4379 45.5891C52.4379 44.6358 51.6651 43.8631 50.7119 43.8631H36.9037Z" fill="#F59F27"/>
</svg>
