<svg width="131" height="117" viewBox="0 0 131 117" fill="none" xmlns="http://www.w3.org/2000/svg">
<g clip-path="url(#clip0_690:3295)">
<ellipse cx="46.1997" cy="72.5965" rx="46.1997" ry="44.4037" fill="#E8D1F9"/>
<path d="M57.2554 8.25891H31.5351C30.4856 8.25891 29.4792 8.67506 28.7371 9.4158C27.995 10.1565 27.5781 11.1612 27.5781 12.2088V95.156C27.5781 96.2036 27.995 97.2082 28.7371 97.949C29.4792 98.6897 30.4856 99.1059 31.5351 99.1059H57.2554" stroke="#8A19E1" stroke-width="4" stroke-linejoin="round"/>
<path d="M33.5156 24.0586H57.2575" stroke="#8A19E1" stroke-width="4" stroke-linejoin="round"/>
<path d="M33.5156 83.3064H57.2575" stroke="#8A19E1" stroke-width="4" stroke-linejoin="round"/>
<path d="M39.4492 16.1587H57.2556" stroke="#8A19E1" stroke-width="4" stroke-linejoin="round"/>
<path d="M53.2988 91.2063H57.2558" stroke="#8A19E1" stroke-width="4" stroke-linejoin="round"/>
<path d="M43.4042 31.958H35.4902V39.8577" stroke="#8A19E1" stroke-width="4" stroke-linejoin="round"/>
<path d="M63.1895 37.883V12.2089C63.1895 11.1613 63.6063 10.1567 64.3484 9.41592C65.0905 8.67518 66.097 8.25903 67.1464 8.25903H114.63C115.68 8.25903 116.686 8.67518 117.428 9.41592C118.17 10.1567 118.587 11.1613 118.587 12.2089V95.1561C118.587 96.2037 118.17 97.2084 117.428 97.9491C116.686 98.6899 115.68 99.106 114.63 99.106H67.1464C66.097 99.106 65.0905 98.6899 64.3484 97.9491C63.6063 97.2084 63.1895 96.2037 63.1895 95.1561V75.4068" stroke="#8A19E1" stroke-width="4" stroke-linejoin="round"/>
<path d="M69.125 24.0586H112.652" stroke="#8A19E1" stroke-width="4" stroke-linejoin="round"/>
<path d="M69.125 83.3064H112.652" stroke="#8A19E1" stroke-width="4" stroke-linejoin="round"/>
<path d="M75.0605 16.1587H98.8024" stroke="#8A19E1" stroke-width="4" stroke-linejoin="round"/>
<path d="M102.764 16.1587H106.721" stroke="#8A19E1" stroke-width="4" stroke-linejoin="round"/>
<path d="M88.9082 91.2063H92.8652" stroke="#8A19E1" stroke-width="4" stroke-linejoin="round"/>
<path d="M79.0194 31.958H71.1055V39.8577" stroke="#8A19E1" stroke-width="4" stroke-linejoin="round"/>
<path d="M59.2362 41.833L51.3223 49.7327L59.2362 57.6325" stroke="#F59F27" stroke-width="4" stroke-linejoin="round"/>
<path d="M51.3223 49.7324H98.806C99.3286 49.7214 99.8481 49.816 100.333 50.0106C100.818 50.2052 101.259 50.4957 101.629 50.8647C101.998 51.2337 102.289 51.6736 102.484 52.1578C102.679 52.642 102.774 53.1606 102.763 53.6823V59.6071" stroke="#F59F27" stroke-width="4" stroke-linejoin="round"/>
<path d="M86.9336 75.4069L94.8475 67.5072L86.9336 59.6074" stroke="#F59F27" stroke-width="4" stroke-linejoin="round"/>
<path d="M94.8458 67.507H47.3621C46.8395 67.518 46.32 67.4234 45.8349 67.2288C45.3498 67.0342 44.9092 66.7437 44.5395 66.3747C44.1698 66.0057 43.8788 65.5658 43.6838 65.0816C43.4889 64.5974 43.3941 64.0789 43.4052 63.5571V57.6323" stroke="#F59F27" stroke-width="4" stroke-linejoin="round"/>
</g>
<defs>
<clipPath id="clip0_690:3295">
<rect width="131" height="117" fill="white" transform="translate(0 0.00012207)"/>
</clipPath>
</defs>
</svg>
