<svg width="131" height="117" viewBox="0 0 131 117" fill="none" xmlns="http://www.w3.org/2000/svg">
<g clip-path="url(#clip0_690:3278)">
<ellipse cx="46.1997" cy="72.5965" rx="46.1997" ry="44.4037" fill="#E8D1F9"/>
<g clip-path="url(#clip1_690:3278)">
<path d="M92.0745 53.0842C91.9678 52.9757 91.8372 52.888 91.6907 52.8265C91.5443 52.7651 91.3852 52.7312 91.2234 52.727C88.7096 52.6685 85.5288 50.2736 83.4258 49.3338C82.1268 48.7551 81.2691 48.3735 80.6251 48.273C80.4943 48.256 80.3615 48.2563 80.2308 48.274C79.5867 48.3745 78.7291 48.7561 77.4312 49.3348C75.3281 50.2736 72.1473 52.6685 69.6336 52.727C69.4717 52.7314 69.3125 52.7654 69.1659 52.8268C69.0193 52.8882 68.8885 52.9759 68.7814 53.0842C68.5596 53.3078 68.4451 53.6001 68.4627 53.8981C69.0027 63.6796 72.9404 69.7331 79.8496 73.2513C80.0292 73.342 80.2286 73.3889 80.4268 73.3889C80.6251 73.3889 80.8244 73.342 81.0052 73.2513C87.9144 69.7331 91.851 63.6796 92.3921 53.8981C92.4107 53.6001 92.2965 53.3076 92.0745 53.0842ZM86.5803 56.9312L80.75 64.597C80.5408 64.8722 80.2122 65.0547 79.8869 65.0547C79.5605 65.0547 79.1979 64.8956 78.969 64.6916L74.8593 61.029C74.7252 60.9091 74.6498 60.7466 74.6498 60.5772C74.6498 60.4078 74.7252 60.2453 74.8593 60.1254L75.8747 59.2187C76.0097 59.0997 76.1919 59.0329 76.3818 59.0329C76.5718 59.0329 76.754 59.0997 76.889 59.2187L79.5615 61.6L84.2046 55.4937C84.312 55.354 84.4771 55.2578 84.6639 55.2262C84.8506 55.1945 85.0439 55.23 85.2013 55.3249L86.3898 56.0431C86.5468 56.1387 86.6549 56.2858 86.6906 56.4522C86.7264 56.6186 86.6867 56.7908 86.5803 56.9312Z" fill="#8A19E1"/>
</g>
<path d="M117.521 2.75305H39.8869C35.3736 2.75305 31.7148 6.37512 31.7148 10.8432V87.6992C31.7148 92.1673 35.3736 95.7893 39.8869 95.7893H117.521C122.034 95.7893 125.693 92.1673 125.693 87.6992V10.8432C125.693 6.37512 122.034 2.75305 117.521 2.75305Z" stroke="#8A19E1" stroke-width="4" stroke-linejoin="round"/>
<path d="M37.8438 18.9332H119.564" stroke="#8A19E1" stroke-width="4" stroke-linejoin="round"/>
<path d="M39.8867 10.843H43.9727" stroke="#8A19E1" stroke-width="4" stroke-linejoin="round"/>
<path d="M48.0566 10.843H52.1427" stroke="#8A19E1" stroke-width="4" stroke-linejoin="round"/>
<path d="M113.434 10.843H117.52" stroke="#8A19E1" stroke-width="4" stroke-linejoin="round"/>
<path d="M105.265 41.1811H70.5336V33.091C70.5336 32.5546 70.3183 32.0402 69.9352 31.6609C69.5521 31.2816 69.0324 31.0685 68.4906 31.0685H52.1465C51.6047 31.0685 51.085 31.2816 50.7019 31.6609C50.3188 32.0402 50.1035 32.5546 50.1035 33.091V79.6092C50.1035 80.1456 50.3188 80.66 50.7019 81.0393C51.085 81.4186 51.6047 81.6317 52.1465 81.6317H105.265C105.807 81.6317 106.326 81.4186 106.709 81.0393C107.092 80.66 107.308 80.1456 107.308 79.6092V43.2037C107.308 42.6672 107.092 42.1528 106.709 41.7735C106.326 41.3942 105.807 41.1811 105.265 41.1811Z" stroke="#F59F27" stroke-width="4" stroke-linejoin="round"/>
<path d="M70.5332 35.1134H99.1353" stroke="#F59F27" stroke-width="4" stroke-linejoin="round"/>
<path d="M70.5334 41.1812H58.2754" stroke="#F59F27" stroke-width="4" stroke-linejoin="round"/>
</g>
<defs>
<clipPath id="clip0_690:3278">
<rect width="131" height="117" fill="white" transform="translate(0 0.00012207)"/>
</clipPath>
<clipPath id="clip1_690:3278">
<rect width="28.4783" height="25.3735" fill="white" transform="translate(66.1895 48.1766)"/>
</clipPath>
</defs>
</svg>
