<svg width="48" height="42" viewBox="0 0 48 42" fill="none" xmlns="http://www.w3.org/2000/svg">
<circle cx="20" cy="20.2366" r="20" fill="#8A19E1" fill-opacity="0.2"/>
<path fill-rule="evenodd" clip-rule="evenodd" d="M21.2619 16.7085V36.5429H39.0872V16.7085C39.0871 16.7042 39.0868 16.6953 39.0862 16.6819C39.0848 16.6504 39.0816 16.5946 39.0744 16.5183C39.0599 16.365 39.0295 16.1315 38.9661 15.8446C38.8391 15.2699 38.5833 14.4954 38.068 13.7179C37.0736 12.2177 34.9303 10.4408 30.1745 10.4408C25.4188 10.4408 23.2755 12.2177 22.2811 13.7179C21.7658 14.4954 21.5099 15.2699 21.383 15.8446C21.3196 16.1315 21.2892 16.365 21.2747 16.5183C21.2674 16.5946 21.2642 16.6504 21.2628 16.6819C21.2622 16.6952 21.262 16.7042 21.2619 16.7085ZM20.1478 16.6994H19.0337V37.848C19.0337 38.5688 19.5325 39.1531 20.1478 39.1531H40.2013C40.8166 39.1531 41.3154 38.5688 41.3154 37.848V16.6994H40.2013C41.3154 16.6994 41.3154 16.6983 41.3154 16.6973L41.3154 16.695L41.3153 16.69L41.3152 16.6778L41.3147 16.645C41.3142 16.6194 41.3132 16.5866 41.3114 16.547C41.3079 16.4677 41.3013 16.3609 41.289 16.2305C41.2643 15.9701 41.2164 15.6127 41.1232 15.1905C40.9368 14.3469 40.5659 13.2306 39.8279 12.1171C38.3156 9.83549 35.4455 7.83057 30.1745 7.83057C24.9035 7.83057 22.0335 9.83549 20.5212 12.1171C19.7831 13.2306 19.4123 14.3469 19.2259 15.1905C19.1326 15.6127 19.0847 15.9701 19.0601 16.2305C19.0477 16.3609 19.0411 16.4677 19.0376 16.547C19.0359 16.5866 19.0349 16.6194 19.0343 16.645L19.0338 16.6778L19.0337 16.69L19.0337 16.695L19.0337 16.6973C19.0337 16.6983 19.0337 16.6994 20.1478 16.6994Z" fill="#8A19E1"/>
<path fill-rule="evenodd" clip-rule="evenodd" d="M30.1746 14.3561C28.944 14.3561 27.9464 15.5247 27.9464 16.9663C27.9464 18.4079 28.944 19.5765 30.1746 19.5765C31.4052 19.5765 32.4028 18.4079 32.4028 16.9663C32.4028 15.5247 31.4052 14.3561 30.1746 14.3561ZM25.7183 16.9663C25.7183 14.0831 27.7134 11.7458 30.1746 11.7458C32.6358 11.7458 34.6309 14.0831 34.6309 16.9663C34.6309 19.8494 32.6358 22.1867 30.1746 22.1867C27.7134 22.1867 25.7183 19.8494 25.7183 16.9663Z" fill="#8A19E1"/>
<path fill-rule="evenodd" clip-rule="evenodd" d="M30.1746 1.95776C30.7899 1.95776 31.2887 2.54208 31.2887 3.26287V13.0512C31.2887 13.772 30.7899 14.3563 30.1746 14.3563C29.5593 14.3563 29.0605 13.772 29.0605 13.0512V3.26287C29.0605 2.54208 29.5593 1.95776 30.1746 1.95776Z" fill="#8A19E1"/>
<path d="M27.1711 28.2818C27.8682 28.3923 28.4024 28.6464 28.7737 29.0442C29.145 29.4346 29.3306 29.9208 29.3306 30.5028C29.3306 30.9521 29.2094 31.3683 28.9669 31.7514C28.7244 32.1271 28.3532 32.4291 27.8531 32.6575C27.3606 32.8858 26.7544 33 26.0346 33C25.4739 33 24.9208 32.93 24.3752 32.7901C23.8373 32.6427 23.3789 32.4365 23 32.1713L23.716 30.8011C24.0191 31.0221 24.3676 31.1952 24.7617 31.3204C25.1632 31.4383 25.5724 31.4972 25.9891 31.4972C26.4513 31.4972 26.815 31.4125 27.0802 31.2431C27.3454 31.0663 27.478 30.8195 27.478 30.5028C27.478 29.8692 26.9817 29.5525 25.9891 29.5525H25.1481V28.3702L26.7847 26.5691H23.3978V25.1326H28.9669V26.2928L27.1711 28.2818Z" fill="#F59F27"/>
<path d="M33.5903 33C32.9311 33 32.3439 32.8416 31.8287 32.5249C31.3135 32.2081 30.9081 31.7514 30.6126 31.1547C30.3247 30.5506 30.1807 29.8324 30.1807 29C30.1807 28.1676 30.3247 27.453 30.6126 26.8564C30.9081 26.2523 31.3135 25.7919 31.8287 25.4751C32.3439 25.1584 32.9311 25 33.5903 25C34.2495 25 34.8368 25.1584 35.352 25.4751C35.8672 25.7919 36.2688 26.2523 36.5567 26.8564C36.8522 27.453 37 28.1676 37 29C37 29.8324 36.8522 30.5506 36.5567 31.1547C36.2688 31.7514 35.8672 32.2081 35.352 32.5249C34.8368 32.8416 34.2495 33 33.5903 33ZM33.5903 31.4862C34.0753 31.4862 34.4541 31.2836 34.7269 30.8785C35.0072 30.4733 35.1474 29.8471 35.1474 29C35.1474 28.1529 35.0072 27.5267 34.7269 27.1215C34.4541 26.7164 34.0753 26.5138 33.5903 26.5138C33.113 26.5138 32.7341 26.7164 32.4538 27.1215C32.181 27.5267 32.0446 28.1529 32.0446 29C32.0446 29.8471 32.181 30.4733 32.4538 30.8785C32.7341 31.2836 33.113 31.4862 33.5903 31.4862Z" fill="#F59F27"/>
</svg>
