<svg width="127" height="37" viewBox="0 0 127 37" fill="none" xmlns="http://www.w3.org/2000/svg">
<g clip-path="url(#clip0_195:1559)">
<path fill-rule="evenodd" clip-rule="evenodd" d="M21.7232 6.11849C26.6553 6.11849 30.717 9.8763 30.717 14.5495C30.717 19.1745 26.6553 22.9323 21.7232 22.9323C16.7428 22.9323 12.6811 19.1745 12.6811 14.5495C12.6811 9.8763 16.7428 6.11849 21.7232 6.11849ZM116.834 17.4883V10.9844H114.127V6.50391H116.834V5.05859C116.834 3.51693 118.092 2.3125 119.591 2.3125C121.089 2.3125 122.347 3.51693 122.347 5.05859V6.50391H124.716C125.973 6.50391 126.989 7.51562 126.989 8.76823C126.989 10.0208 125.973 10.9844 124.716 10.9844H122.347V16.043C122.347 17.8737 123.362 17.9219 124.668 17.9219C125.925 17.9219 126.989 18.9336 126.989 20.2344C126.989 21.487 125.973 22.4987 124.668 22.5469H121.96C119.155 22.5469 116.883 20.2826 116.834 17.4883ZM80.1341 7.46745L80.1825 7.51562C80.5693 7.90104 80.8111 8.43099 80.8111 8.96094C80.8111 10.0208 79.8924 10.9362 78.8286 10.9362C78.7802 10.9362 78.7802 10.9362 78.7802 10.9362C78.4418 10.9362 78.0549 10.888 77.6198 10.7435C76.7978 10.5508 74.6702 10.2135 73.6548 10.5508C73.6064 10.599 73.5581 10.599 73.5097 10.6471H73.4614C73.268 10.7917 73.1712 10.9844 73.1712 11.2253C73.1712 11.4661 73.3163 11.707 73.5097 11.8034C74.7669 12.4297 76.4593 12.526 77.9099 13.0078C83.7123 15.0312 82.5518 21.487 77.0395 22.6914C75.0087 23.125 68.9645 23.3177 67.804 20.957V20.9089C67.804 20.9089 67.804 20.8607 67.7557 20.8125C67.7073 20.7161 67.7073 20.668 67.659 20.5716C67.659 20.3789 67.6106 20.2344 67.6106 20.0417C67.6106 19.0781 68.3359 18.2591 69.2546 18.0664H69.303C69.7865 18.0182 70.3668 18.0182 70.8986 18.1628C72.3976 18.5482 74.6218 18.8854 75.6856 18.3555C75.734 18.3555 75.734 18.3073 75.7823 18.3073C75.9757 18.1628 76.0725 17.9701 76.0725 17.7292C76.0725 17.4883 75.9757 17.2956 75.7823 17.1992V17.151C75.734 17.151 75.734 17.151 75.6856 17.151C75.3955 16.9583 74.8153 16.862 74.3317 16.7174C72.4943 16.1875 69.1096 15.4648 68.1425 13.875C67.2721 12.526 67.2721 10.3099 68.0458 8.91276C69.9799 5.49219 77.7648 5.34766 80.1341 7.46745ZM91.3521 6.11849C96.3325 6.11849 100.346 9.8763 100.346 14.5495C100.346 19.1745 96.3325 22.9323 91.3521 22.9323C86.3717 22.9323 82.3584 19.1745 82.3584 14.5495C82.3584 9.8763 86.3717 6.11849 91.3521 6.11849ZM94.8336 14.5495C94.8336 12.4779 93.2863 10.8398 91.3521 10.8398C89.418 10.8398 87.8707 12.4779 87.8707 14.5495C87.8707 16.5729 89.418 18.2591 91.3521 18.2591C93.2863 18.2591 94.8336 16.5729 94.8336 14.5495ZM103.005 5.05859V5.10677C103.005 5.6849 103.005 5.92578 103.005 6.50391H101.748C101.748 6.50391 101.748 6.50391 101.7 6.50391C100.491 6.50391 99.4755 7.51562 99.4755 8.76823C99.4755 10.0208 100.491 10.9844 101.7 10.9844C101.748 10.9844 101.748 10.9844 101.748 10.9844H103.005V16.7656C104.553 16.5729 106.197 17.0547 107.405 18.2591C107.889 18.7409 108.227 19.2227 108.469 19.8008V10.9844H113.111V6.50391H108.469C108.469 4.67318 109.485 4.625 110.79 4.625C112.096 4.625 113.111 3.5651 113.111 2.3125C113.111 1.0599 112.096 0 110.839 0H110.79H110.742L108.227 0.0481771C108.179 0.0481771 108.179 0 108.131 0C105.326 0 103.005 2.26432 103.005 5.05859ZM60.0191 16.0911V18.2591C60.0191 18.2591 59.5839 18.5964 58.6652 18.9336C57.408 19.4635 55.9091 19.0781 55.4739 18.2591C54.5068 16.5247 56.586 14.3086 60.0191 16.0911ZM59.9224 6.3112C63.017 6.79297 65.5314 9.39453 65.5314 12.6224C65.5314 14.0677 65.5314 16.1393 65.5314 17.5365C65.5314 18.0664 65.7248 18.3073 66.4018 18.3073C66.5952 18.3073 66.837 18.3073 67.0787 18.3073C66.7402 18.7891 66.5468 19.4154 66.5468 20.0417C66.5468 20.2826 66.5952 20.5716 66.6435 20.8125C66.6919 20.957 66.7402 21.1016 66.7886 21.2461C66.7886 21.2943 66.837 21.3424 66.8853 21.3906C66.982 21.6797 67.1754 21.9206 67.3688 22.1615C66.9337 22.4023 66.3534 22.6432 65.9182 22.7396C63.4039 23.3177 62.0016 22.5469 60.6477 21.1497L59.3422 22.0169C56.1508 24.2331 50.4451 23.0286 49.8166 18.4518C49.4781 15.6094 50.8803 13.9232 52.7661 13.056C55.2321 11.9479 57.6015 12.4297 60.0191 13.2005C60.1158 9.53906 55.8607 10.7435 53.6365 10.6953C52.5727 10.6953 51.654 9.77995 51.654 8.72005C51.654 8.14193 51.9441 7.61198 52.3309 7.27474C52.9595 6.64844 54.3618 6.16667 57.1663 6.11849C58.1817 6.07031 59.0521 6.16667 59.9224 6.3112ZM37.0513 14.5977C36.471 10.8398 40.3393 10.1172 42.2734 11.2734C43.0471 11.7552 43.3372 12.1406 43.3372 13.3932C43.3372 13.4896 43.3372 13.6341 43.3372 13.7305V15.224C43.2888 15.6094 43.1921 15.9466 42.902 16.1875C41.258 17.8255 37.4864 17.5846 37.0513 14.5977ZM35.3589 23.9922C35.5523 23.9922 35.6974 24.0404 35.8424 24.0885C38.0667 24.474 40.0492 24.5703 41.6448 23.7513C42.757 23.2214 43.2888 21.9687 43.3372 19.9453C41.0162 22.0651 37.9216 22.595 35.1655 21.0534C30.0884 18.1628 30.3301 9.63542 35.1655 6.9375C37.7766 5.49219 41.2096 5.97396 43.3372 8.04557C43.4339 6.60026 44.6427 5.49219 46.0933 5.49219C47.6406 5.49219 48.8495 6.74479 48.8495 8.23828V19.4635C48.8495 24.1849 47.3505 26.3529 44.4977 27.7982C42.0317 29.0508 38.3084 29.0508 35.1171 28.5208C35.0204 28.5208 34.9237 28.4727 34.827 28.4727C33.8599 28.2318 33.1346 27.3164 33.1346 26.2565C33.1346 25.0039 34.1017 23.9922 35.3589 23.9922ZM10.747 17.5365C12.1492 17.5365 13.2614 18.6927 13.2614 20.0417C13.2614 21.3424 12.2943 22.3542 11.0371 22.4987C10.9888 22.5469 10.7954 22.5469 10.747 22.5469H2.86539C1.26973 22.5469 0.0125427 21.2943 0.0125427 19.7526V3.27604C0.0125427 1.73437 1.26973 0.481771 2.86539 0.481771C4.4127 0.481771 5.66989 1.73437 5.66989 3.27604V15.3685C5.66989 16.5729 6.63696 17.5365 7.84579 17.5365H10.747ZM25.2047 14.5495C25.2047 12.4779 23.609 10.8398 21.7232 10.8398C19.7891 10.8398 18.1934 12.4779 18.1934 14.5495C18.1934 16.5729 19.7891 18.2591 21.7232 18.2591C23.609 18.2591 25.2047 16.5729 25.2047 14.5495Z" fill="#F59F27"/>
<path d="M101.748 19.6511C102.811 18.5912 104.552 18.5912 105.616 19.6511C106.68 20.711 106.68 22.3972 105.616 23.4571L93.2858 35.7423C92.222 36.8022 90.4813 36.8022 89.4175 35.7423L83.4217 29.7683C82.3579 28.7084 82.3579 27.0222 83.4217 25.9623C84.4855 24.9024 86.2262 24.9024 87.29 25.9623L91.3517 30.0092L101.748 19.6511Z" fill="#8A19E1"/>
</g>
<defs>
<clipPath id="clip0_195:1559">
<rect width="127" height="37" fill="white"/>
</clipPath>
</defs>
</svg>
