<svg width="48" height="40" viewBox="0 0 48 40" fill="none" xmlns="http://www.w3.org/2000/svg">
<circle cx="20" cy="20" r="20" fill="#8A19E1" fill-opacity="0.2"/>
<path fill-rule="evenodd" clip-rule="evenodd" d="M34.3423 8.66778C32.0794 8.66778 30.2448 10.6174 30.2448 13.0225C30.2448 15.4275 32.0794 17.3772 34.3423 17.3772C36.6053 17.3772 38.4398 15.4275 38.4398 13.0225C38.4398 10.6174 36.6053 8.66778 34.3423 8.66778ZM27.5132 13.0225C27.5132 9.01409 30.5707 5.76465 34.3423 5.76465C38.114 5.76465 41.1715 9.01409 41.1715 13.0225C41.1715 17.0309 38.114 20.2803 34.3423 20.2803C30.5707 20.2803 27.5132 17.0309 27.5132 13.0225Z" fill="#F59F27"/>
<path fill-rule="evenodd" clip-rule="evenodd" d="M32.4526 26.2426L34.342 27.8543L36.2315 26.2426C35.6453 26.1417 35.0167 26.0867 34.342 26.0867C33.6674 26.0867 33.0388 26.1417 32.4526 26.2426ZM39.3003 27.3474L36.1066 30.0717L38.2596 34.0759C38.5651 34.6443 38.475 35.3597 38.0395 35.8225L35.3078 38.7256C34.7744 39.2925 33.9096 39.2925 33.3762 38.7256L30.6446 35.8225C30.2091 35.3597 30.1189 34.6443 30.4245 34.0759L32.5775 30.0717L29.3838 27.3474C26.9783 28.7532 25.4979 31.1421 24.5979 33.3849C24.109 34.6031 23.8086 35.7375 23.6311 36.5667C23.5426 36.98 23.4855 37.3136 23.451 37.5393C23.4337 37.6521 23.4222 37.7376 23.4152 37.7922C23.4117 37.8195 23.4094 37.8391 23.4081 37.8504L23.407 37.8595C23.3233 38.6558 22.6481 39.2304 21.8987 39.1419C21.149 39.0534 20.6088 38.3357 20.6921 37.5389L22.0495 37.6992C20.6921 37.5389 20.692 37.5395 20.6921 37.5389L20.6923 37.5365L20.6927 37.5332L20.6937 37.5241L20.6968 37.4962C20.6995 37.4733 20.7032 37.4419 20.7082 37.4026C20.7183 37.3238 20.7334 37.2129 20.7547 37.0735C20.7973 36.7949 20.865 36.4013 20.9675 35.9227C21.1718 34.9682 21.5174 33.6608 22.0852 32.2459C23.2113 29.4399 25.2817 26.0452 29.0137 24.3082C30.5394 23.598 32.3071 23.1836 34.342 23.1836C36.377 23.1836 38.1446 23.598 39.6704 24.3082C43.4024 26.0452 45.4728 29.4399 46.5989 32.2459C47.1667 33.6608 47.5122 34.9682 47.7166 35.9227C47.819 36.4013 47.8867 36.7949 47.9294 37.0735C47.9507 37.2129 47.9658 37.3238 47.9758 37.4026C47.9808 37.4419 47.9846 37.4733 47.9872 37.4962L47.9904 37.5241L47.9914 37.5332L47.9917 37.5365C47.9918 37.537 47.992 37.5389 46.6345 37.6992L47.992 37.5389C48.0753 38.3357 47.5351 39.0534 46.7853 39.1419C46.0363 39.2304 45.3616 38.6574 45.2773 37.8618L45.277 37.8595L45.276 37.8504C45.2747 37.8391 45.2723 37.8195 45.2689 37.7922C45.2619 37.7376 45.2503 37.6521 45.2331 37.5393C45.1986 37.3136 45.1414 36.98 45.053 36.5667C44.8755 35.7375 44.5751 34.6031 44.0862 33.3849C43.1862 31.1421 41.7057 28.7532 39.3003 27.3474ZM34.342 32.6414L33.3138 34.5537L34.342 35.6464L35.3702 34.5537L34.342 32.6414Z" fill="#8A19E1"/>
</svg>
