<svg width="46" height="96" viewBox="0 0 46 96" fill="none" xmlns="http://www.w3.org/2000/svg">
<path d="M23 38C16.9022 38.0071 11.0563 40.41 6.74451 44.6817C2.43273 48.9533 0.00721817 54.7448 2.44696e-05 60.7857C-0.00727884 65.7224 1.62044 70.5251 4.63347 74.4571C4.63347 74.4571 5.26075 75.2754 5.3632 75.3934L23 96L40.6452 75.3831C40.7372 75.2733 41.3665 74.4571 41.3665 74.4571L41.3686 74.4509C44.3802 70.5206 46.0071 65.7201 46 60.7857C45.9928 54.7448 43.5673 48.9533 39.2555 44.6817C34.9437 40.41 29.0978 38.0071 23 38ZM23 69.0714C21.3458 69.0714 19.7288 68.5855 18.3534 67.675C16.978 66.7646 15.906 65.4705 15.273 63.9565C14.64 62.4425 14.4744 60.7765 14.7971 59.1693C15.1198 57.562 15.9163 56.0856 17.086 54.9268C18.2557 53.7681 19.746 52.9789 21.3683 52.6592C22.9907 52.3395 24.6724 52.5036 26.2006 53.1307C27.7289 53.7578 29.0351 54.8198 29.9541 56.1824C30.8731 57.545 31.3636 59.147 31.3636 60.7857C31.3609 62.9824 30.4788 65.0883 28.9109 66.6416C27.343 68.1948 25.2173 69.0687 23 69.0714Z" fill="#8A19E1"/>
<path fill-rule="evenodd" clip-rule="evenodd" d="M34.4839 6.41252C34.789 6.71788 35.0941 7.32861 35.0941 7.93933C35.0941 8.85541 34.1788 9.77149 33.2635 9.77149H32.9584C32.6533 9.77149 32.3482 9.77149 32.0431 9.46613C31.1278 9.46613 29.2973 9.16077 28.382 9.46613C28.0769 9.46613 28.0769 9.46613 28.0769 9.46613C27.7718 9.46613 27.7718 9.77149 27.7718 10.0768C27.7718 10.3822 27.7718 10.3822 28.0769 10.6876C29.2973 11.2983 30.8228 11.2983 32.3482 11.6037C36.9247 13.1305 36.9247 17.7109 33.8737 19.8484C33.8737 18.9323 33.2635 17.7109 32.3482 16.7948C31.4329 15.8787 30.2126 15.5733 28.9922 15.268C27.1616 14.6573 23.8055 14.0465 22.8903 12.5197C22.2801 11.2983 22.2801 9.16077 22.8903 7.93933C24.7208 4.58036 32.0431 4.275 34.4839 6.41252Z" fill="#F59F27"/>
<path d="M27.1616 18.627C28.0769 17.7109 29.6024 17.7109 30.8228 18.627C31.7381 19.5431 31.7381 21.3752 30.8228 22.2913L20.1444 32.9789C19.2291 33.895 17.3986 33.895 16.4833 32.9789L10.6865 27.1771C9.77118 26.261 9.77118 24.4289 10.6865 23.5128C11.9068 22.5967 13.4323 22.5967 14.3476 23.5128L18.3139 27.4825L27.1616 18.627Z" fill="#8A19E1"/>
<path fill-rule="evenodd" clip-rule="evenodd" d="M20.7547 16.1841C21.9751 16.1841 23.1955 17.4055 23.1955 18.627C23.1955 19.8484 22.2802 20.7645 21.0598 21.0699H20.7547H13.1273C11.9069 21.0699 10.6865 19.8484 10.6865 18.3216V2.74824C10.6865 1.22144 11.6018 0 13.1273 0C14.6528 0 15.8732 1.22144 15.8732 2.74824V14.3519C15.8732 15.268 16.7884 16.1841 18.0088 16.1841H20.7547Z" fill="#F59F27"/>
</svg>
