<svg width="58" height="50" viewBox="0 0 58 50" fill="none" xmlns="http://www.w3.org/2000/svg">
<g clip-path="url(#clip0_1039_2489)">
<ellipse cx="25.1647" cy="25" rx="24.8658" ry="25" fill="#E8D1F9"/>
<path d="M35.4048 30.1881L39.5872 26.9981L43.7516 30.1881L42.1652 25.0225L46.3476 21.6875H41.2277L39.5872 16.5944L37.9467 21.6875H32.8268L36.9912 25.0225L35.4048 30.1881ZM54.0094 23.5C54.0094 15.4887 47.5555 9 39.5872 9C31.619 9 25.165 15.4887 25.165 23.5C25.165 27.1794 26.5351 30.5144 28.7706 33.07V47.0625L39.5872 43.4375L50.4039 47.0625V33.07C52.7284 30.4301 54.011 27.0258 54.0094 23.5ZM39.5872 12.625C45.5544 12.625 50.4039 17.5006 50.4039 23.5C50.4039 29.4994 45.5544 34.375 39.5872 34.375C33.62 34.375 28.7706 29.4994 28.7706 23.5C28.7706 17.5006 33.62 12.625 39.5872 12.625ZM39.5872 39.8125L32.3761 41.6612V36.0425C34.5034 37.275 36.9552 38 39.5872 38C42.2193 38 44.671 37.275 46.7983 36.0425V41.6612L39.5872 39.8125Z" fill="#8A19E1"/>
<path d="M39.5864 16.25L41.3403 21.6771H47.0161L42.4243 25.0312L44.1782 30.4583L39.5864 27.1042L34.9946 30.4583L36.7485 25.0312L32.1568 21.6771H37.8325L39.5864 16.25Z" fill="#F59F27"/>
</g>
<defs>
<clipPath id="clip0_1039_2489">
<rect width="57.6887" height="50.0001" fill="white" transform="translate(0.298828)"/>
</clipPath>
</defs>
</svg>
