<svg width="36" height="36" viewBox="0 0 36 36" fill="none" xmlns="http://www.w3.org/2000/svg">
<path fill-rule="evenodd" clip-rule="evenodd" d="M18 0.583313C8.38129 0.583313 0.583374 8.38123 0.583374 18C0.583374 27.6187 8.38129 35.4166 18 35.4166C27.6188 35.4166 35.4167 27.6187 35.4167 18C35.4167 8.38123 27.6188 0.583313 18 0.583313ZM11.6667 16.4166C11.2468 16.4166 10.8441 16.5835 10.5471 16.8804C10.2502 17.1773 10.0834 17.5801 10.0834 18C10.0834 18.4199 10.2502 18.8226 10.5471 19.1196C10.8441 19.4165 11.2468 19.5833 11.6667 19.5833H24.3334C24.7533 19.5833 25.156 19.4165 25.453 19.1196C25.7499 18.8226 25.9167 18.4199 25.9167 18C25.9167 17.5801 25.7499 17.1773 25.453 16.8804C25.156 16.5835 24.7533 16.4166 24.3334 16.4166H11.6667Z" fill="white"/>
</svg>
