<svg width="36" height="36" viewBox="0 0 36 36" fill="none" xmlns="http://www.w3.org/2000/svg">
<path fill-rule="evenodd" clip-rule="evenodd" d="M18.0007 0.583374C8.3819 0.583374 0.583984 8.38129 0.583984 18C0.583984 27.6188 8.3819 35.4167 18.0007 35.4167C27.6194 35.4167 35.4173 27.6188 35.4173 18C35.4173 8.38129 27.6194 0.583374 18.0007 0.583374ZM11.6673 16.4167C11.2474 16.4167 10.8447 16.5835 10.5477 16.8805C10.2508 17.1774 10.084 17.5801 10.084 18C10.084 18.42 10.2508 18.8227 10.5477 19.1196C10.8447 19.4166 11.2474 19.5834 11.6673 19.5834H24.334C24.7539 19.5834 25.1566 19.4166 25.4536 19.1196C25.7505 18.8227 25.9173 18.42 25.9173 18C25.9173 17.5801 25.7505 17.1774 25.4536 16.8805C25.1566 16.5835 24.7539 16.4167 24.334 16.4167H11.6673Z" fill="#8A19E1"/>
</svg>
