<svg width="131" height="117" viewBox="0 0 131 117" fill="none" xmlns="http://www.w3.org/2000/svg">
<g clip-path="url(#clip0_690:3417)">
<ellipse cx="46.1997" cy="72.5965" rx="46.1997" ry="44.4037" fill="#E8D1F9"/>
<path d="M72.0638 98.0426H111.213C113.289 98.0426 115.281 97.2176 116.749 95.7493C118.218 94.2809 119.043 92.2894 119.043 90.2128V15.8298C119.043 13.7532 118.218 11.7617 116.749 10.2933C115.281 8.82492 113.289 8 111.213 8H36.8298C34.7532 8 32.7617 8.82492 31.2933 10.2933C29.8249 11.7617 29 13.7532 29 15.8298V72.5957" stroke="#8A19E1" stroke-width="4" stroke-linejoin="round"/>
<path d="M34.873 23.6596H113.171" stroke="#8A19E1" stroke-width="4" stroke-linejoin="round"/>
<path d="M36.8301 15.8298H40.745" stroke="#8A19E1" stroke-width="4" stroke-linejoin="round"/>
<path d="M44.6602 15.8298H48.575" stroke="#8A19E1" stroke-width="4" stroke-linejoin="round"/>
<path d="M107.299 15.8298H111.214" stroke="#8A19E1" stroke-width="4" stroke-linejoin="round"/>
<path d="M46.6173 47.1489C38.7875 47.1489 36.8301 54.9787 36.8301 54.9787V58.8349C36.8301 66.6196 41.2128 72.5957 46.6173 72.5957C52.0218 72.5957 56.4045 66.6196 56.4045 58.8349V54.9787C56.4045 54.9787 54.4471 47.1489 46.6173 47.1489Z" stroke="#F59F27" stroke-width="4" stroke-linejoin="round"/>
<path d="M64.2347 100V84.3404C64.2347 82.2638 63.4098 80.2723 61.9414 78.8039C60.473 77.3356 58.4815 76.5106 56.4049 76.5106C55.6292 76.5272 54.8582 76.3866 54.1382 76.0974C53.4183 75.8081 52.7643 75.3762 52.2157 74.8275C51.667 74.2789 51.2351 73.6249 50.9458 72.905C50.6566 72.185 50.516 71.414 50.5326 70.6383" stroke="#F59F27" stroke-width="4" stroke-linejoin="round"/>
<path d="M42.7021 70.6383C42.7187 71.414 42.5781 72.185 42.2888 72.905C41.9996 73.6249 41.5676 74.2789 41.019 74.8275C40.4704 75.3762 39.8164 75.8081 39.0965 76.0974C38.3765 76.3866 37.6055 76.5272 36.8298 76.5106C34.7532 76.5106 32.7617 77.3356 31.2933 78.8039C29.8249 80.2723 29 82.2638 29 84.3404V100" stroke="#F59F27" stroke-width="4" stroke-linejoin="round"/>
<path d="M36.8301 86.2979V100" stroke="#F59F27" stroke-width="4" stroke-linejoin="round"/>
<path d="M56.4043 86.2979V100" stroke="#F59F27" stroke-width="4" stroke-linejoin="round"/>
<path d="M111.212 31.4893H60.3184V41.2766H111.212V31.4893Z" stroke="#F59F27" stroke-width="4" stroke-linejoin="round"/>
<path d="M64.2344 51.0638H111.213V60.8511H64.2344" stroke="#8A19E1" stroke-width="4" stroke-linejoin="round"/>
<path d="M109.255 70.6383H97.5102C96.4291 70.6383 95.5527 71.5147 95.5527 72.5958V76.5106C95.5527 77.5917 96.4291 78.4681 97.5102 78.4681H109.255C110.336 78.4681 111.212 77.5917 111.212 76.5106V72.5958C111.212 71.5147 110.336 70.6383 109.255 70.6383Z" stroke="#8A19E1" stroke-width="4" stroke-linejoin="round"/>
<path d="M85.7666 70.6383H74.0219C72.9408 70.6383 72.0645 71.5147 72.0645 72.5958V76.5106C72.0645 77.5917 72.9408 78.4681 74.0219 78.4681H85.7666C86.8476 78.4681 87.724 77.5917 87.724 76.5106V72.5958C87.724 71.5147 86.8476 70.6383 85.7666 70.6383Z" stroke="#8A19E1" stroke-width="4" stroke-linejoin="round"/>
<path d="M111.214 88.2553H107.299" stroke="#8A19E1" stroke-width="4" stroke-linejoin="round"/>
<path d="M103.384 88.2553H99.4688" stroke="#8A19E1" stroke-width="4" stroke-linejoin="round"/>
<path d="M95.5538 88.2553H72.0645" stroke="#8A19E1" stroke-width="4" stroke-linejoin="round"/>
<path d="M34.873 31.4893H52.4901" stroke="#8A19E1" stroke-width="4" stroke-linejoin="round"/>
<path d="M34.873 39.3192H44.6603" stroke="#8A19E1" stroke-width="4" stroke-linejoin="round"/>
<path d="M52.4891 39.3192H48.5742" stroke="#8A19E1" stroke-width="4" stroke-linejoin="round"/>
</g>
<defs>
<clipPath id="clip0_690:3417">
<rect width="131" height="117" fill="white" transform="translate(0 0.00012207)"/>
</clipPath>
</defs>
</svg>
