<svg width="53" height="53" viewBox="0 0 53 53" fill="none" xmlns="http://www.w3.org/2000/svg">
<circle cx="26.5" cy="26.5" r="26.5" fill="white"/>
<path d="M42 26.5C42 17.9396 35.0604 11 26.5 11C17.9396 11 11 17.9396 11 26.5C11 34.2364 16.6681 40.6489 24.0781 41.8117V30.9805H20.1426V26.5H24.0781V23.0852C24.0781 19.2005 26.3922 17.0547 29.9327 17.0547C31.628 17.0547 33.4023 17.3574 33.4023 17.3574V21.1719H31.4479C29.5225 21.1719 28.9219 22.3668 28.9219 23.5938V26.5H33.2207L32.5335 30.9805H28.9219V41.8117C36.3319 40.6489 42 34.2364 42 26.5Z" fill="#8A19E1"/>
</svg>
