<svg width="53" height="53" viewBox="0 0 53 53" fill="none" xmlns="http://www.w3.org/2000/svg">
<circle cx="26.5" cy="26.5" r="26.5" fill="white"/>
<path d="M26.5 13.7912C30.6414 13.7912 31.1318 13.8094 32.7605 13.882C34.2742 13.9486 35.0916 14.2029 35.6365 14.4148C36.357 14.6934 36.8777 15.0324 37.4166 15.5713C37.9615 16.1162 38.2945 16.6309 38.573 17.3514C38.785 17.8963 39.0393 18.7197 39.1059 20.2273C39.1785 21.8621 39.1967 22.3525 39.1967 26.4879C39.1967 30.6293 39.1785 31.1197 39.1059 32.7484C39.0393 34.2621 38.785 35.0795 38.573 35.6244C38.2945 36.3449 37.9555 36.8656 37.4166 37.4045C36.8717 37.9494 36.357 38.2824 35.6365 38.5609C35.0916 38.7729 34.2682 39.0271 32.7605 39.0937C31.1258 39.1664 30.6354 39.1846 26.5 39.1846C22.3586 39.1846 21.8682 39.1664 20.2395 39.0937C18.7258 39.0271 17.9084 38.7729 17.3635 38.5609C16.643 38.2824 16.1223 37.9434 15.5834 37.4045C15.0385 36.8596 14.7055 36.3449 14.427 35.6244C14.215 35.0795 13.9607 34.2561 13.8941 32.7484C13.8215 31.1137 13.8033 30.6232 13.8033 26.4879C13.8033 22.3465 13.8215 21.8561 13.8941 20.2273C13.9607 18.7137 14.215 17.8963 14.427 17.3514C14.7055 16.6309 15.0445 16.1102 15.5834 15.5713C16.1283 15.0264 16.643 14.6934 17.3635 14.4148C17.9084 14.2029 18.7318 13.9486 20.2395 13.882C21.8682 13.8094 22.3586 13.7912 26.5 13.7912ZM26.5 11C22.292 11 21.7652 11.0182 20.1123 11.0908C18.4654 11.1635 17.3332 11.4299 16.3523 11.8113C15.3291 12.2109 14.4633 12.7377 13.6035 13.6035C12.7377 14.4633 12.2109 15.3291 11.8113 16.3463C11.4299 17.3332 11.1635 18.4594 11.0908 20.1062C11.0182 21.7652 11 22.292 11 26.5C11 30.708 11.0182 31.2348 11.0908 32.8877C11.1635 34.5346 11.4299 35.6668 11.8113 36.6477C12.2109 37.6709 12.7377 38.5367 13.6035 39.3965C14.4633 40.2562 15.3291 40.7891 16.3463 41.1826C17.3332 41.5641 18.4594 41.8305 20.1062 41.9031C21.7592 41.9758 22.2859 41.9939 26.4939 41.9939C30.702 41.9939 31.2287 41.9758 32.8816 41.9031C34.5285 41.8305 35.6607 41.5641 36.6416 41.1826C37.6588 40.7891 38.5246 40.2562 39.3844 39.3965C40.2441 38.5367 40.777 37.6709 41.1705 36.6537C41.552 35.6668 41.8184 34.5406 41.891 32.8938C41.9637 31.2408 41.9818 30.7141 41.9818 26.5061C41.9818 22.298 41.9637 21.7713 41.891 20.1184C41.8184 18.4715 41.552 17.3393 41.1705 16.3584C40.7891 15.3291 40.2623 14.4633 39.3965 13.6035C38.5367 12.7437 37.6709 12.2109 36.6537 11.8174C35.6668 11.4359 34.5406 11.1695 32.8938 11.0969C31.2348 11.0182 30.708 11 26.5 11Z" fill="#8A19E1"/>
<path d="M26.5 18.5381C22.1043 18.5381 18.5381 22.1043 18.5381 26.5C18.5381 30.8957 22.1043 34.4619 26.5 34.4619C30.8957 34.4619 34.4619 30.8957 34.4619 26.5C34.4619 22.1043 30.8957 18.5381 26.5 18.5381ZM26.5 31.6646C23.6482 31.6646 21.3354 29.3518 21.3354 26.5C21.3354 23.6482 23.6482 21.3354 26.5 21.3354C29.3518 21.3354 31.6646 23.6482 31.6646 26.5C31.6646 29.3518 29.3518 31.6646 26.5 31.6646Z" fill="#8A19E1"/>
<path d="M36.6355 18.2231C36.6355 19.2523 35.8 20.0818 34.7768 20.0818C33.7475 20.0818 32.918 19.2463 32.918 18.2231C32.918 17.1938 33.7535 16.3643 34.7768 16.3643C35.8 16.3643 36.6355 17.1998 36.6355 18.2231Z" fill="#8A19E1"/>
</svg>
