<svg width="53" height="53" viewBox="0 0 53 53" fill="none" xmlns="http://www.w3.org/2000/svg">
<circle cx="26.5" cy="26.5" r="26.5" fill="white"/>
<path fill-rule="evenodd" clip-rule="evenodd" d="M13.1752 13.1752C11 15.3503 11 18.8523 11 25.8542V27.1458C11 34.1467 11 37.6497 13.1752 39.8248C15.3503 42 18.8523 42 25.8542 42H27.1458C34.1467 42 37.6497 42 39.8248 39.8248C42 37.6497 42 34.1477 42 27.1458V25.8542C42 18.8533 42 15.3503 39.8248 13.1752C37.6497 11 34.1477 11 27.1458 11H25.8542C18.8533 11 15.3503 11 13.1752 13.1752ZM17.1359 20.6875H19.3958C19.9735 20.6875 20.1905 20.9407 20.4075 21.5669C21.5131 24.7867 23.3773 27.6015 24.143 27.6015C24.4313 27.6015 24.5625 27.4693 24.5625 26.7387V23.4103C24.5108 22.4628 24.1797 22.053 23.9345 21.7494C23.7832 21.562 23.6645 21.4151 23.6645 21.2073C23.6645 20.9541 23.8805 20.6875 24.2391 20.6875H27.7917C28.2711 20.6875 28.4375 20.9438 28.4375 21.5183V25.9968C28.4375 26.4752 28.6452 26.6436 28.7888 26.6436C29.0761 26.6436 29.3158 26.4752 29.8428 25.9482C31.4714 24.1285 32.6204 21.3271 32.6204 21.3271C32.7641 20.9913 33.0296 20.6875 33.6042 20.6875H35.8641C36.5481 20.6875 36.6928 21.0399 36.5481 21.5183C36.2609 22.8358 33.507 26.7149 33.507 26.7149C33.2673 27.0983 33.1712 27.2895 33.507 27.7204C33.6256 27.8864 33.8784 28.1342 34.1675 28.4176C34.4632 28.7074 34.7968 29.0343 35.0632 29.3489C36.0346 30.4411 36.7662 31.3629 36.9697 31.9973C37.1568 32.6349 36.8333 32.9583 36.1875 32.9583H33.9266C33.3213 32.9583 33.0167 32.6194 32.3581 31.8863C32.079 31.5756 31.7363 31.1941 31.2802 30.7377C29.9379 29.445 29.3644 29.2776 29.0286 29.2776C28.5739 29.2776 28.4375 29.4068 28.4375 30.0526V32.08C28.4375 32.6349 28.2598 32.9583 26.8224 32.9583C24.4282 32.9583 21.7963 31.5044 19.929 28.8219C17.1266 24.8952 16.3609 21.9254 16.3609 21.3271C16.3609 20.9913 16.4901 20.6875 17.1359 20.6875Z" fill="#8A19E1"/>
</svg>
