<svg width="131" height="117" viewBox="0 0 131 117" fill="none" xmlns="http://www.w3.org/2000/svg">
<g clip-path="url(#clip0_690:3340)">
<ellipse cx="46.1997" cy="72.5965" rx="46.1997" ry="44.4037" fill="#E8D1F9"/>
<path d="M111.652 5H32.3478C27.7374 5 24 8.73745 24 13.3478V92.6522C24 97.2626 27.7374 101 32.3478 101H111.652C116.263 101 120 97.2626 120 92.6522V13.3478C120 8.73745 116.263 5 111.652 5Z" stroke="#8A19E1" stroke-width="4" stroke-linejoin="round"/>
<path d="M30.2598 21.6956H113.738" stroke="#8A19E1" stroke-width="4" stroke-linejoin="round"/>
<path d="M32.3477 13.3478H36.5216" stroke="#8A19E1" stroke-width="4" stroke-linejoin="round"/>
<path d="M40.6953 13.3478H44.8692" stroke="#8A19E1" stroke-width="4" stroke-linejoin="round"/>
<path d="M107.479 13.3478H111.652" stroke="#8A19E1" stroke-width="4" stroke-linejoin="round"/>
<path d="M111.652 32.1304H32.3477V65.5217H111.652V32.1304Z" stroke="#F59F27" stroke-width="4" stroke-linejoin="round"/>
<path d="M69.9141 57.174H74.088" stroke="#F59F27" stroke-width="4" stroke-linejoin="round"/>
<path d="M78.2598 57.174H82.4337" stroke="#F59F27" stroke-width="4" stroke-linejoin="round"/>
<path d="M61.5664 57.174H65.7403" stroke="#F59F27" stroke-width="4" stroke-linejoin="round"/>
<path d="M30.2598 90.5652H55.3032" stroke="#8A19E1" stroke-width="4" stroke-linejoin="round"/>
<path d="M30.2598 73.8696H44.8685" stroke="#8A19E1" stroke-width="4" stroke-linejoin="round"/>
<path d="M30.2598 82.2174H55.3032" stroke="#8A19E1" stroke-width="4" stroke-linejoin="round"/>
<path d="M59.4785 90.5652H84.522" stroke="#8A19E1" stroke-width="4" stroke-linejoin="round"/>
<path d="M59.4785 73.8696H74.0872" stroke="#8A19E1" stroke-width="4" stroke-linejoin="round"/>
<path d="M59.4785 82.2174H84.522" stroke="#8A19E1" stroke-width="4" stroke-linejoin="round"/>
<path d="M88.6953 90.5652H113.739" stroke="#8A19E1" stroke-width="4" stroke-linejoin="round"/>
<path d="M88.6953 73.8696H103.304" stroke="#8A19E1" stroke-width="4" stroke-linejoin="round"/>
<path d="M88.6953 82.2174H113.739" stroke="#8A19E1" stroke-width="4" stroke-linejoin="round"/>
</g>
<defs>
<clipPath id="clip0_690:3340">
<rect width="131" height="117" fill="white" transform="translate(0 0.00012207)"/>
</clipPath>
</defs>
</svg>
