<svg width="35" height="35" viewBox="0 0 35 35" fill="none" xmlns="http://www.w3.org/2000/svg">
<circle cx="17.5" cy="17.5" r="17.5" fill="#F59F27"/>
<path d="M18.758 14.605C19.5553 14.735 20.1663 15.034 20.591 15.502C21.0157 15.9613 21.228 16.5333 21.228 17.218C21.228 17.7467 21.0893 18.2363 20.812 18.687C20.5347 19.129 20.11 19.4843 19.538 19.753C18.9747 20.0217 18.2813 20.156 17.458 20.156C16.8167 20.156 16.184 20.0737 15.56 19.909C14.9447 19.7357 14.4203 19.493 13.987 19.181L14.806 17.569C15.1527 17.829 15.5513 18.0327 16.002 18.18C16.4613 18.3187 16.9293 18.388 17.406 18.388C17.9347 18.388 18.3507 18.2883 18.654 18.089C18.9573 17.881 19.109 17.5907 19.109 17.218C19.109 16.4727 18.5413 16.1 17.406 16.1H16.444V14.709L18.316 12.59H14.442V10.9H20.812V12.265L18.758 14.605Z" fill="white"/>
</svg>
