<svg width="35" height="35" viewBox="0 0 35 35" fill="none" xmlns="http://www.w3.org/2000/svg">
<circle cx="17.5" cy="17.5" r="17.5" fill="#F59F27"/>
<path d="M21.306 18.284V20H14.429V18.635L17.939 15.32C18.3117 14.9647 18.563 14.6613 18.693 14.41C18.823 14.15 18.888 13.8943 18.888 13.643C18.888 13.279 18.7623 13.0017 18.511 12.811C18.2683 12.6117 17.9087 12.512 17.432 12.512C17.0333 12.512 16.6737 12.59 16.353 12.746C16.0323 12.8933 15.7637 13.1187 15.547 13.422L14.013 12.434C14.3683 11.9053 14.858 11.4937 15.482 11.199C16.106 10.8957 16.821 10.744 17.627 10.744C18.303 10.744 18.8923 10.8567 19.395 11.082C19.9063 11.2987 20.3007 11.6107 20.578 12.018C20.864 12.4167 21.007 12.889 21.007 13.435C21.007 13.929 20.903 14.3927 20.695 14.826C20.487 15.2593 20.084 15.7533 19.486 16.308L17.393 18.284H21.306Z" fill="white"/>
</svg>
