<svg width="120" height="102" viewBox="0 0 120 102" fill="none" xmlns="http://www.w3.org/2000/svg">
<ellipse cx="46.9574" cy="55.4198" rx="46.9574" ry="46.0984" fill="#E8D1F9"/>
<path fill-rule="evenodd" clip-rule="evenodd" d="M42.375 37.6562C42.375 36.4309 43.3544 35.4375 44.5625 35.4375H101.438C102.646 35.4375 103.625 36.4309 103.625 37.6562V75.375C103.625 76.6004 102.646 77.5938 101.438 77.5938H44.5625C43.3544 77.5938 42.375 76.6004 42.375 75.375V37.6562ZM46.75 39.875V73.1562H99.25V39.875H46.75Z" fill="#8A19E1"/>
<path fill-rule="evenodd" clip-rule="evenodd" d="M73.0002 73.1562C73.7316 73.1562 74.4146 73.527 74.8203 74.1443L87.9453 94.113C88.6155 95.1326 88.3439 96.5101 87.3386 97.1899C86.3334 97.8696 84.9753 97.5941 84.3051 96.5745L73.0002 79.3749L61.6953 96.5745C61.0252 97.5941 59.667 97.8696 58.6618 97.1899C57.6566 96.5101 57.385 95.1326 58.0551 94.113L71.1801 74.1443C71.5858 73.527 72.2688 73.1562 73.0002 73.1562Z" fill="#8A19E1"/>
<path fill-rule="evenodd" clip-rule="evenodd" d="M51.125 46.5312C51.125 45.3059 52.1044 44.3125 53.3125 44.3125H66.4375C67.6456 44.3125 68.625 45.3059 68.625 46.5312C68.625 47.7566 67.6456 48.75 66.4375 48.75H53.3125C52.1044 48.75 51.125 47.7566 51.125 46.5312ZM51.125 55.4062C51.125 54.1809 52.1044 53.1875 53.3125 53.1875H66.4375C67.6456 53.1875 68.625 54.1809 68.625 55.4062C68.625 56.6316 67.6456 57.625 66.4375 57.625H53.3125C52.1044 57.625 51.125 56.6316 51.125 55.4062ZM51.125 64.2812C51.125 63.0559 52.1044 62.0625 53.3125 62.0625H66.4375C67.6456 62.0625 68.625 63.0559 68.625 64.2812C68.625 65.5066 67.6456 66.5 66.4375 66.5H53.3125C52.1044 66.5 51.125 65.5066 51.125 64.2812Z" fill="#8A19E1"/>
<path fill-rule="evenodd" clip-rule="evenodd" d="M83.9375 48.75C80.3131 48.75 77.375 51.7301 77.375 55.4062C77.375 59.0824 80.3131 62.0625 83.9375 62.0625C87.5619 62.0625 90.5 59.0824 90.5 55.4062C90.5 51.7301 87.5619 48.75 83.9375 48.75ZM73 55.4062C73 49.2793 77.8969 44.3125 83.9375 44.3125C89.9781 44.3125 94.875 49.2793 94.875 55.4062C94.875 61.5332 89.9781 66.5 83.9375 66.5C77.8969 66.5 73 61.5332 73 55.4062Z" fill="#F59F27"/>
</svg>
