<svg width="7" height="13" viewBox="0 0 7 13" fill="none" xmlns="http://www.w3.org/2000/svg">
<path d="M0.306829 12.6788C0.374232 12.7314 0.449909 12.7554 0.525739 12.7484C0.601568 12.7413 0.674687 12.7034 0.737246 12.6388L6.15391 7.01378C6.20926 6.95626 6.25449 6.87948 6.28573 6.79001C6.31698 6.70053 6.33329 6.60103 6.33329 6.50003C6.33329 6.39903 6.31698 6.29953 6.28573 6.21006C6.25449 6.12059 6.20926 6.0438 6.15391 5.98628L0.737246 0.361283C0.674735 0.296404 0.601583 0.258411 0.52571 0.25142C0.449837 0.244429 0.374135 0.268705 0.3068 0.32162C0.239465 0.374535 0.183064 0.454073 0.143703 0.551621C0.104342 0.649169 0.0835218 0.761009 0.0834961 0.875033V12.125C0.0834836 12.2391 0.104289 12.351 0.143657 12.4486C0.183026 12.5463 0.239455 12.6258 0.306829 12.6788Z" fill="#8A19E1"/>
</svg>
