<svg width="70" height="63" viewBox="0 0 70 63" fill="none" xmlns="http://www.w3.org/2000/svg">
<ellipse cx="31.606" cy="31.5" rx="31.606" ry="31.5" fill="#E8D1F9"/>
<path fill-rule="evenodd" clip-rule="evenodd" d="M29.2366 28.3944C28.7952 28.3944 28.4373 28.7577 28.4373 29.2058C28.4373 29.654 28.7952 30.0173 29.2366 30.0173C29.6781 30.0173 30.0359 29.654 30.0359 29.2058C30.0359 28.7577 29.6781 28.3944 29.2366 28.3944ZM25.2402 29.2058C25.2402 26.9651 27.0295 25.1486 29.2366 25.1486C31.4438 25.1486 33.233 26.9651 33.233 29.2058C33.233 31.4466 31.4438 33.2631 29.2366 33.2631C27.0295 33.2631 25.2402 31.4466 25.2402 29.2058Z" fill="#8A19E1"/>
<path fill-rule="evenodd" clip-rule="evenodd" d="M29.2367 34.886C28.5192 34.886 27.9661 35.0639 27.5234 35.321C26.7783 35.7537 26.1718 36.747 25.7461 37.9352C25.5475 38.4893 25.4151 39.01 25.3328 39.393C25.2919 39.5831 25.2641 39.7356 25.2471 39.8369C25.2386 39.8874 25.2328 39.9249 25.2294 39.9476L25.2261 39.9703C25.1089 40.8583 24.3051 41.4818 23.4302 41.3633C22.5551 41.2447 21.9404 40.4284 22.0572 39.5399L23.6417 39.7546C22.0572 39.5399 22.0571 39.5404 22.0572 39.5399L22.0578 39.5358L22.0585 39.53L22.0608 39.5137L22.0682 39.4625C22.0745 39.4203 22.0835 39.3621 22.0957 39.29C22.12 39.1458 22.1568 38.9444 22.2092 38.7007C22.3134 38.2162 22.4821 37.5498 22.7416 36.8256C23.2319 35.4573 24.1695 33.5294 25.936 32.5035C26.8599 31.967 27.9599 31.6402 29.2367 31.6402C32.457 31.6402 34.2795 33.9275 35.2064 35.7711C35.6807 36.7144 35.9782 37.6409 36.1574 38.3212C36.2478 38.6645 36.3101 38.9532 36.3506 39.1606C36.3708 39.2645 36.3857 39.3486 36.3959 39.4095C36.401 39.44 36.405 39.4648 36.4079 39.4834L36.4114 39.5066L36.4126 39.5147L36.4131 39.5179C36.4132 39.5185 36.4134 39.5204 34.8797 39.7475L36.4134 39.5204C36.5408 40.4074 35.9359 41.2312 35.0623 41.3605C34.19 41.4897 33.3797 40.8776 33.2504 39.9929L33.2497 39.9887L33.2441 39.9539C33.2384 39.9198 33.2286 39.8644 33.2143 39.7908C33.1855 39.6432 33.1386 39.4248 33.0687 39.1595C32.9273 38.6225 32.7004 37.9262 32.3588 37.2467C31.6538 35.8445 30.6788 34.886 29.2367 34.886ZM33.2501 39.991C33.2501 39.9907 33.2501 39.9912 33.2501 39.991ZM33.2501 39.991C33.25 39.9905 33.2498 39.9891 33.2497 39.9887L34.8316 39.7546C33.2498 39.9888 33.25 39.9905 33.2501 39.991Z" fill="#8A19E1"/>
<path fill-rule="evenodd" clip-rule="evenodd" d="M58.0101 13.7884C57.5686 13.7884 57.2108 14.1517 57.2108 14.5999C57.2108 15.048 57.5686 15.4113 58.0101 15.4113C58.4515 15.4113 58.8093 15.048 58.8093 14.5999C58.8093 14.1517 58.4515 13.7884 58.0101 13.7884ZM54.0137 14.5999C54.0137 12.3591 55.8029 10.5427 58.0101 10.5427C60.2172 10.5427 62.0065 12.3591 62.0065 14.5999C62.0065 16.8406 60.2172 18.6571 58.0101 18.6571C55.8029 18.6571 54.0137 16.8406 54.0137 14.5999Z" fill="#8A19E1"/>
<path fill-rule="evenodd" clip-rule="evenodd" d="M58.0101 20.28C57.2926 20.28 56.7396 20.4579 56.2969 20.715C55.5517 21.1477 54.9453 22.141 54.5195 23.3292C54.321 23.8833 54.1886 24.404 54.1062 24.787C54.0653 24.9771 54.0376 25.1297 54.0205 25.2309C54.012 25.2815 54.0062 25.319 54.0028 25.3417L53.9995 25.3643C53.8824 26.2523 53.0785 26.8758 52.2037 26.7573C51.3286 26.6387 50.7138 25.8224 50.8306 24.934L52.4151 25.1487C50.8306 24.934 50.8306 24.9344 50.8306 24.934L50.8312 24.9299L50.832 24.9241L50.8342 24.9078L50.8416 24.8565C50.8479 24.8143 50.857 24.7562 50.8691 24.684C50.8934 24.5398 50.9303 24.3385 50.9827 24.0948C51.0868 23.6103 51.2555 22.9438 51.515 22.2196C52.0053 20.8513 52.9429 18.9234 54.7095 17.8976C55.6334 17.3611 56.7333 17.0342 58.0101 17.0342C61.2304 17.0342 63.0529 19.3215 63.9798 21.1651C64.4541 22.1084 64.7517 23.035 64.9308 23.7152C65.0212 24.0585 65.0836 24.3472 65.124 24.5547C65.1443 24.6586 65.1591 24.7426 65.1693 24.8036C65.1745 24.8341 65.1784 24.8588 65.1813 24.8774L65.1848 24.9007L65.186 24.9088L65.1865 24.9119C65.1866 24.9125 65.1869 24.9145 63.6532 25.1416L65.1869 24.9145C65.3143 25.8014 64.7094 26.6252 63.8357 26.7546C62.9634 26.8837 62.1531 26.2717 62.0238 25.3869L62.0232 25.3827L62.0175 25.348C62.0118 25.3138 62.0021 25.2584 61.9877 25.1848C61.959 25.0373 61.912 24.8188 61.8422 24.5535C61.7008 24.0166 61.4738 23.3202 61.1322 22.6407C60.4272 21.2385 59.4522 20.28 58.0101 20.28ZM62.0235 25.385C62.0235 25.3848 62.0236 25.3853 62.0235 25.385ZM62.0235 25.385C62.0235 25.3846 62.0232 25.3832 62.0232 25.3827L63.605 25.1487C62.0232 25.3829 62.0235 25.3845 62.0235 25.385Z" fill="#8A19E1"/>
<path fill-rule="evenodd" clip-rule="evenodd" d="M58.0101 28.3944C57.5686 28.3944 57.2108 28.7577 57.2108 29.2058C57.2108 29.654 57.5686 30.0173 58.0101 30.0173C58.4515 30.0173 58.8093 29.654 58.8093 29.2058C58.8093 28.7577 58.4515 28.3944 58.0101 28.3944ZM54.0137 29.2058C54.0137 26.9651 55.8029 25.1486 58.0101 25.1486C60.2172 25.1486 62.0065 26.9651 62.0065 29.2058C62.0065 31.4466 60.2172 33.2631 58.0101 33.2631C55.8029 33.2631 54.0137 31.4466 54.0137 29.2058Z" fill="#8A19E1"/>
<path fill-rule="evenodd" clip-rule="evenodd" d="M58.0101 34.886C57.2926 34.886 56.7396 35.0639 56.2969 35.321C55.5517 35.7537 54.9453 36.747 54.5195 37.9352C54.321 38.4893 54.1886 39.01 54.1062 39.393C54.0653 39.5831 54.0376 39.7356 54.0205 39.8369C54.012 39.8874 54.0062 39.9249 54.0028 39.9476L53.9995 39.9703C53.8824 40.8583 53.0785 41.4818 52.2037 41.3633C51.3286 41.2447 50.7138 40.4284 50.8306 39.5399L52.4151 39.7546C50.8306 39.5399 50.8306 39.5404 50.8306 39.5399L50.8312 39.5358L50.832 39.53L50.8342 39.5137L50.8416 39.4625C50.8479 39.4203 50.857 39.3621 50.8691 39.29C50.8934 39.1458 50.9303 38.9444 50.9827 38.7007C51.0868 38.2162 51.2555 37.5498 51.515 36.8256C52.0053 35.4573 52.9429 33.5294 54.7095 32.5035C55.6334 31.967 56.7333 31.6402 58.0101 31.6402C61.2304 31.6402 63.0529 33.9275 63.9798 35.7711C64.4541 36.7144 64.7517 37.6409 64.9308 38.3212C65.0212 38.6645 65.0836 38.9532 65.124 39.1606C65.1443 39.2645 65.1591 39.3486 65.1693 39.4095C65.1745 39.44 65.1784 39.4648 65.1813 39.4834L65.1848 39.5066L65.186 39.5147L65.1865 39.5179C65.1866 39.5185 65.1869 39.5204 63.6532 39.7475L65.1869 39.5204C65.3143 40.4074 64.7094 41.2312 63.8357 41.3605C62.9634 41.4897 62.1531 40.8776 62.0238 39.9929L62.0232 39.9887L62.0175 39.9539C62.0118 39.9198 62.0021 39.8644 61.9877 39.7908C61.959 39.6432 61.912 39.4248 61.8422 39.1595C61.7008 38.6225 61.4738 37.9262 61.1322 37.2467C60.4272 35.8445 59.4522 34.886 58.0101 34.886ZM62.0235 39.991C62.0235 39.9907 62.0236 39.9912 62.0235 39.991ZM62.0235 39.991C62.0235 39.9905 62.0232 39.9891 62.0232 39.9887L63.605 39.7546C62.0232 39.9888 62.0235 39.9905 62.0235 39.991Z" fill="#8A19E1"/>
<path fill-rule="evenodd" clip-rule="evenodd" d="M58.0101 43.0004C57.5686 43.0004 57.2108 43.3637 57.2108 43.8119C57.2108 44.26 57.5686 44.6233 58.0101 44.6233C58.4515 44.6233 58.8093 44.26 58.8093 43.8119C58.8093 43.3637 58.4515 43.0004 58.0101 43.0004ZM54.0137 43.8119C54.0137 41.5711 55.8029 39.7546 58.0101 39.7546C60.2172 39.7546 62.0065 41.5711 62.0065 43.8119C62.0065 46.0526 60.2172 47.8691 58.0101 47.8691C55.8029 47.8691 54.0137 46.0526 54.0137 43.8119Z" fill="#8A19E1"/>
<path fill-rule="evenodd" clip-rule="evenodd" d="M58.0101 49.492C57.2926 49.492 56.7396 49.6699 56.2969 49.927C55.5517 50.3597 54.9453 51.353 54.5195 52.5412C54.321 53.0953 54.1886 53.616 54.1062 53.999C54.0653 54.1891 54.0376 54.3416 54.0205 54.4429C54.012 54.4934 54.0062 54.5309 54.0028 54.5536L53.9995 54.5763C53.8824 55.4643 53.0785 56.0878 52.2037 55.9693C51.3286 55.8507 50.7138 55.0344 50.8306 54.146L52.4151 54.3607C50.8306 54.146 50.8306 54.1464 50.8306 54.146L50.8312 54.1418L50.832 54.1361L50.8342 54.1197L50.8416 54.0685C50.8479 54.0263 50.857 53.9682 50.8691 53.896C50.8934 53.7518 50.9303 53.5504 50.9827 53.3068C51.0868 52.8222 51.2555 52.1558 51.515 51.4316C52.0053 50.0633 52.9429 48.1354 54.7095 47.1095C55.6334 46.573 56.7333 46.2462 58.0101 46.2462C61.2304 46.2462 63.0529 48.5335 63.9798 50.3771C64.4541 51.3204 64.7517 52.247 64.9308 52.9272C65.0212 53.2705 65.0836 53.5592 65.124 53.7666C65.1443 53.8705 65.1591 53.9546 65.1693 54.0155C65.1745 54.046 65.1784 54.0708 65.1813 54.0894L65.1848 54.1127L65.186 54.1208L65.1865 54.1239C65.1866 54.1245 65.1869 54.1264 63.6532 54.3535L65.1869 54.1265C65.3143 55.0134 64.7094 55.8372 63.8357 55.9666C62.9634 56.0957 62.1531 55.4836 62.0238 54.5989L62.0232 54.5947L62.0175 54.56C62.0118 54.5258 62.0021 54.4704 61.9877 54.3968C61.959 54.2492 61.912 54.0308 61.8422 53.7655C61.7008 53.2286 61.4738 52.5322 61.1322 51.8527C60.4272 50.4505 59.4522 49.492 58.0101 49.492ZM62.0235 54.597C62.0235 54.5968 62.0236 54.5972 62.0235 54.597ZM62.0235 54.597C62.0235 54.5965 62.0232 54.5951 62.0232 54.5947L63.605 54.3607C62.0232 54.5948 62.0235 54.5965 62.0235 54.597Z" fill="#8A19E1"/>
<path fill-rule="evenodd" clip-rule="evenodd" d="M39.6267 18.6571C39.6267 17.7608 40.3424 17.0342 41.2253 17.0342H49.2181C50.1009 17.0342 50.8166 17.7608 50.8166 18.6571C50.8166 19.5534 50.1009 20.28 49.2181 20.28H42.8238V31.6402H49.2181C50.1009 31.6402 50.8166 32.3668 50.8166 33.2631C50.8166 34.1593 50.1009 34.8859 49.2181 34.8859H42.8238V46.2462H49.2181C50.1009 46.2462 50.8166 46.9727 50.8166 47.869C50.8166 48.7653 50.1009 49.4919 49.2181 49.4919H41.2253C40.3424 49.4919 39.6267 48.7653 39.6267 47.869V34.8859H36.4296C35.5468 34.8859 34.8311 34.1593 34.8311 33.2631C34.8311 32.3668 35.5468 31.6402 36.4296 31.6402H39.6267V18.6571Z" fill="#F59F27"/>
</svg>
